<svg width="373" height="244" viewBox="0 0 373 244" fill="none" xmlns="http://www.w3.org/2000/svg">
<path d="M30.7031 73.1445C30.0117 72.9492 29.4902 72.627 29.1387 72.1777C28.791 71.7324 28.6172 71.1426 28.6172 70.4082V69.2422C28.6172 68.293 28.2031 67.8184 27.375 67.8184V66.9688C28.2031 66.9688 28.6172 66.4961 28.6172 65.5508V64.332C28.625 63.6172 28.7988 63.041 29.1387 62.6035C29.4824 62.1621 30.0039 61.8418 30.7031 61.6426L30.9258 62.3164C30.1094 62.5781 29.7012 63.2598 29.7012 64.3613V65.5449C29.7012 66.4316 29.375 67.0488 28.7227 67.3965C29.375 67.748 29.7012 68.3711 29.7012 69.2656V70.4727C29.7129 71.5469 30.1211 72.2129 30.9258 72.4707L30.7031 73.1445ZM49.4648 89.8887L50.0859 90.3105C49.7227 90.8066 49.5352 91.3418 49.5234 91.916V92.7129H48.4453V92.0332C48.4453 91.6348 48.5391 91.2402 48.7266 90.8496C48.918 90.459 49.1641 90.1387 49.4648 89.8887ZM51.3105 89.8887L51.9316 90.3105C51.5684 90.8066 51.3809 91.3418 51.3691 91.916V92.7129H50.291V92.0332C50.291 91.6348 50.3848 91.2402 50.5723 90.8496C50.7637 90.459 51.0098 90.1387 51.3105 89.8887ZM54.0762 99H52.9922V92.6602H54.0762V99ZM52.9043 90.9785C52.9043 90.8027 52.957 90.6543 53.0625 90.5332C53.1719 90.4121 53.332 90.3516 53.543 90.3516C53.7539 90.3516 53.9141 90.4121 54.0234 90.5332C54.1328 90.6543 54.1875 90.8027 54.1875 90.9785C54.1875 91.1543 54.1328 91.3008 54.0234 91.418C53.9141 91.5352 53.7539 91.5938 53.543 91.5938C53.332 91.5938 53.1719 91.5352 53.0625 91.418C52.957 91.3008 52.9043 91.1543 52.9043 90.9785ZM55.5527 95.7773C55.5527 94.8047 55.7832 94.0234 56.2441 93.4336C56.7051 92.8398 57.3086 92.543 58.0547 92.543C58.7969 92.543 59.3848 92.7969 59.8184 93.3047V90H60.9023V99H59.9062L59.8535 98.3203C59.4199 98.8516 58.8164 99.1172 58.043 99.1172C57.3086 99.1172 56.709 98.8164 56.2441 98.2148C55.7832 97.6133 55.5527 96.8281 55.5527 95.8594V95.7773ZM56.6367 95.9004C56.6367 96.6191 56.7852 97.1816 57.082 97.5879C57.3789 97.9941 57.7891 98.1973 58.3125 98.1973C59 98.1973 59.502 97.8887 59.8184 97.2715V94.3594C59.4941 93.7617 58.9961 93.4629 58.3242 93.4629C57.793 93.4629 57.3789 93.668 57.082 94.0781C56.7852 94.4883 56.6367 95.0957 56.6367 95.9004ZM62.7363 92.8711L62.1211 92.4492C62.4844 91.9414 62.6719 91.4062 62.6836 90.8438V90H63.7559V90.7617C63.752 91.1523 63.6543 91.543 63.4629 91.9336C63.2754 92.3203 63.0332 92.6328 62.7363 92.8711ZM64.5352 92.8711L63.9199 92.4492C64.2832 91.9414 64.4707 91.4062 64.4824 90.8438V90H65.5547V90.7617C65.5508 91.1523 65.4531 91.543 65.2617 91.9336C65.0742 92.3203 64.832 92.6328 64.5352 92.8711ZM75.7734 98.4316C75.7734 98.2441 75.8281 98.0879 75.9375 97.9629C76.0508 97.8379 76.2188 97.7754 76.4414 97.7754C76.6641 97.7754 76.832 97.8379 76.9453 97.9629C77.0625 98.0879 77.1211 98.2441 77.1211 98.4316C77.1211 98.6113 77.0625 98.7617 76.9453 98.8828C76.832 99.0039 76.6641 99.0645 76.4414 99.0645C76.2188 99.0645 76.0508 99.0039 75.9375 98.8828C75.8281 98.7617 75.7734 98.6113 75.7734 98.4316ZM75.7793 93.2578C75.7793 93.0703 75.834 92.9141 75.9434 92.7891C76.0566 92.6641 76.2246 92.6016 76.4473 92.6016C76.6699 92.6016 76.8379 92.6641 76.9512 92.7891C77.0684 92.9141 77.127 93.0703 77.127 93.2578C77.127 93.4375 77.0684 93.5879 76.9512 93.709C76.8379 93.8301 76.6699 93.8906 76.4473 93.8906C76.2246 93.8906 76.0566 93.8301 75.9434 93.709C75.834 93.5879 75.7793 93.4375 75.7793 93.2578ZM85.4766 89.8887L86.0977 90.3105C85.7344 90.8066 85.5469 91.3418 85.5352 91.916V92.7129H84.457V92.0332C84.457 91.6348 84.5508 91.2402 84.7383 90.8496C84.9297 90.459 85.1758 90.1387 85.4766 89.8887ZM87.3223 89.8887L87.9434 90.3105C87.5801 90.8066 87.3926 91.3418 87.3809 91.916V92.7129H86.3027V92.0332C86.3027 91.6348 86.3965 91.2402 86.584 90.8496C86.7754 90.459 87.0215 90.1387 87.3223 89.8887ZM92.5312 99C92.4688 98.875 92.418 98.6523 92.3789 98.332C91.875 98.8555 91.2734 99.1172 90.5742 99.1172C89.9492 99.1172 89.4355 98.9414 89.0332 98.5898C88.6348 98.2344 88.4355 97.7852 88.4355 97.2422C88.4355 96.582 88.6855 96.0703 89.1855 95.707C89.6895 95.3398 90.3965 95.1562 91.3066 95.1562H92.3613V94.6582C92.3613 94.2793 92.248 93.9785 92.0215 93.7559C91.7949 93.5293 91.4609 93.416 91.0195 93.416C90.6328 93.416 90.3086 93.5137 90.0469 93.709C89.7852 93.9043 89.6543 94.1406 89.6543 94.418H88.5645C88.5645 94.1016 88.6758 93.7969 88.8984 93.5039C89.125 93.207 89.4297 92.9727 89.8125 92.8008C90.1992 92.6289 90.623 92.543 91.084 92.543C91.8145 92.543 92.3867 92.7266 92.8008 93.0938C93.2148 93.457 93.4297 93.959 93.4453 94.5996V97.5176C93.4453 98.0996 93.5195 98.5625 93.668 98.9062V99H92.5312ZM90.7324 98.1738C91.0723 98.1738 91.3945 98.0859 91.6992 97.9102C92.0039 97.7344 92.2246 97.5059 92.3613 97.2246V95.9238H91.5117C90.1836 95.9238 89.5195 96.3125 89.5195 97.0898C89.5195 97.4297 89.6328 97.6953 89.8594 97.8867C90.0859 98.0781 90.377 98.1738 90.7324 98.1738ZM100.512 95.9004C100.512 96.8691 100.289 97.6484 99.8438 98.2383C99.3984 98.8242 98.8008 99.1172 98.0508 99.1172C97.25 99.1172 96.6309 98.834 96.1934 98.2676L96.1406 99H95.1445V90H96.2285V93.3574C96.666 92.8145 97.2695 92.543 98.0391 92.543C98.8086 92.543 99.4121 92.834 99.8496 93.416C100.291 93.998 100.512 94.7949 100.512 95.8066V95.9004ZM99.4277 95.7773C99.4277 95.0391 99.2852 94.4688 99 94.0664C98.7148 93.6641 98.3047 93.4629 97.7695 93.4629C97.0547 93.4629 96.541 93.7949 96.2285 94.459V97.2012C96.5605 97.8652 97.0781 98.1973 97.7812 98.1973C98.3008 98.1973 98.7051 97.9961 98.9941 97.5938C99.2832 97.1914 99.4277 96.5859 99.4277 95.7773ZM108.328 96.293C108.223 97.1953 107.889 97.8926 107.326 98.3848C106.768 98.873 106.023 99.1172 105.094 99.1172C104.086 99.1172 103.277 98.7559 102.668 98.0332C102.062 97.3105 101.76 96.3438 101.76 95.1328V94.3125C101.76 93.5195 101.9 92.8223 102.182 92.2207C102.467 91.6191 102.869 91.1582 103.389 90.8379C103.908 90.5137 104.51 90.3516 105.193 90.3516C106.1 90.3516 106.826 90.6055 107.373 91.1133C107.92 91.6172 108.238 92.3164 108.328 93.2109H107.197C107.1 92.5312 106.887 92.0391 106.559 91.7344C106.234 91.4297 105.779 91.2773 105.193 91.2773C104.475 91.2773 103.91 91.543 103.5 92.0742C103.094 92.6055 102.891 93.3613 102.891 94.3418V95.168C102.891 96.0938 103.084 96.8301 103.471 97.377C103.857 97.9238 104.398 98.1973 105.094 98.1973C105.719 98.1973 106.197 98.0566 106.529 97.7754C106.865 97.4902 107.088 96.9961 107.197 96.293H108.328ZM109.436 95.7773C109.436 94.8047 109.666 94.0234 110.127 93.4336C110.588 92.8398 111.191 92.543 111.938 92.543C112.68 92.543 113.268 92.7969 113.701 93.3047V90H114.785V99H113.789L113.736 98.3203C113.303 98.8516 112.699 99.1172 111.926 99.1172C111.191 99.1172 110.592 98.8164 110.127 98.2148C109.666 97.6133 109.436 96.8281 109.436 95.8594V95.7773ZM110.52 95.9004C110.52 96.6191 110.668 97.1816 110.965 97.5879C111.262 97.9941 111.672 98.1973 112.195 98.1973C112.883 98.1973 113.385 97.8887 113.701 97.2715V94.3594C113.377 93.7617 112.879 93.4629 112.207 93.4629C111.676 93.4629 111.262 93.668 110.965 94.0781C110.668 94.4883 110.52 95.0957 110.52 95.9004ZM119.924 99H118.834V91.7754L116.648 92.5781V91.5938L119.754 90.4277H119.924V99ZM123.357 92.8711L122.742 92.4492C123.105 91.9414 123.293 91.4062 123.305 90.8438V90H124.377V90.7617C124.373 91.1523 124.275 91.543 124.084 91.9336C123.896 92.3203 123.654 92.6328 123.357 92.8711ZM125.156 92.8711L124.541 92.4492C124.904 91.9414 125.092 91.4062 125.104 90.8438V90H126.176V90.7617C126.172 91.1523 126.074 91.543 125.883 91.9336C125.695 92.3203 125.453 92.6328 125.156 92.8711ZM127.465 100.699L126.85 100.277C127.217 99.7656 127.408 99.2383 127.424 98.6953V97.7168H128.484V98.5664C128.484 98.9609 128.387 99.3555 128.191 99.75C128 100.145 127.758 100.461 127.465 100.699ZM49.4648 131.889L50.0859 132.311C49.7227 132.807 49.5352 133.342 49.5234 133.916V134.713H48.4453V134.033C48.4453 133.635 48.5391 133.24 48.7266 132.85C48.918 132.459 49.1641 132.139 49.4648 131.889ZM51.3105 131.889L51.9316 132.311C51.5684 132.807 51.3809 133.342 51.3691 133.916V134.713H50.291V134.033C50.291 133.635 50.3848 133.24 50.5723 132.85C50.7637 132.459 51.0098 132.139 51.3105 131.889ZM54.3691 133.125V134.66H55.5527V135.498H54.3691V139.43C54.3691 139.684 54.4219 139.875 54.5273 140.004C54.6328 140.129 54.8125 140.191 55.0664 140.191C55.1914 140.191 55.3633 140.168 55.582 140.121V141C55.2969 141.078 55.0195 141.117 54.75 141.117C54.2656 141.117 53.9004 140.971 53.6543 140.678C53.4082 140.385 53.2852 139.969 53.2852 139.43V135.498H52.1309V134.66H53.2852V133.125H54.3691ZM58.002 141H56.918V134.66H58.002V141ZM56.8301 132.979C56.8301 132.803 56.8828 132.654 56.9883 132.533C57.0977 132.412 57.2578 132.352 57.4688 132.352C57.6797 132.352 57.8398 132.412 57.9492 132.533C58.0586 132.654 58.1133 132.803 58.1133 132.979C58.1133 133.154 58.0586 133.301 57.9492 133.418C57.8398 133.535 57.6797 133.594 57.4688 133.594C57.2578 133.594 57.0977 133.535 56.9883 133.418C56.8828 133.301 56.8301 133.154 56.8301 132.979ZM61.2129 133.125V134.66H62.3965V135.498H61.2129V139.43C61.2129 139.684 61.2656 139.875 61.3711 140.004C61.4766 140.129 61.6562 140.191 61.9102 140.191C62.0352 140.191 62.207 140.168 62.4258 140.121V141C62.1406 141.078 61.8633 141.117 61.5938 141.117C61.1094 141.117 60.7441 140.971 60.498 140.678C60.252 140.385 60.1289 139.969 60.1289 139.43V135.498H58.9746V134.66H60.1289V133.125H61.2129ZM64.8457 141H63.7617V132H64.8457V141ZM69.2168 141.117C68.3574 141.117 67.6582 140.836 67.1191 140.273C66.5801 139.707 66.3105 138.951 66.3105 138.006V137.807C66.3105 137.178 66.4297 136.617 66.668 136.125C66.9102 135.629 67.2461 135.242 67.6758 134.965C68.1094 134.684 68.5781 134.543 69.082 134.543C69.9062 134.543 70.5469 134.814 71.0039 135.357C71.4609 135.9 71.6895 136.678 71.6895 137.689V138.141H67.3945C67.4102 138.766 67.5918 139.271 67.9395 139.658C68.291 140.041 68.7363 140.232 69.2754 140.232C69.6582 140.232 69.9824 140.154 70.248 139.998C70.5137 139.842 70.7461 139.635 70.9453 139.377L71.6074 139.893C71.0762 140.709 70.2793 141.117 69.2168 141.117ZM69.082 135.434C68.6445 135.434 68.2773 135.594 67.9805 135.914C67.6836 136.23 67.5 136.676 67.4297 137.25H70.6055V137.168C70.5742 136.617 70.4258 136.191 70.1602 135.891C69.8945 135.586 69.5352 135.434 69.082 135.434ZM73.0137 134.871L72.3984 134.449C72.7617 133.941 72.9492 133.406 72.9609 132.844V132H74.0332V132.762C74.0293 133.152 73.9316 133.543 73.7402 133.934C73.5527 134.32 73.3105 134.633 73.0137 134.871ZM74.8125 134.871L74.1973 134.449C74.5605 133.941 74.748 133.406 74.7598 132.844V132H75.832V132.762C75.8281 133.152 75.7305 133.543 75.5391 133.934C75.3516 134.32 75.1094 134.633 74.8125 134.871ZM83.0742 140.432C83.0742 140.244 83.1289 140.088 83.2383 139.963C83.3516 139.838 83.5195 139.775 83.7422 139.775C83.9648 139.775 84.1328 139.838 84.2461 139.963C84.3633 140.088 84.4219 140.244 84.4219 140.432C84.4219 140.611 84.3633 140.762 84.2461 140.883C84.1328 141.004 83.9648 141.064 83.7422 141.064C83.5195 141.064 83.3516 141.004 83.2383 140.883C83.1289 140.762 83.0742 140.611 83.0742 140.432ZM83.0801 135.258C83.0801 135.07 83.1348 134.914 83.2441 134.789C83.3574 134.664 83.5254 134.602 83.748 134.602C83.9707 134.602 84.1387 134.664 84.252 134.789C84.3691 134.914 84.4277 135.07 84.4277 135.258C84.4277 135.438 84.3691 135.588 84.252 135.709C84.1387 135.83 83.9707 135.891 83.748 135.891C83.5254 135.891 83.3574 135.83 83.2441 135.709C83.1348 135.588 83.0801 135.438 83.0801 135.258ZM92.7773 131.889L93.3984 132.311C93.0352 132.807 92.8477 133.342 92.8359 133.916V134.713H91.7578V134.033C91.7578 133.635 91.8516 133.24 92.0391 132.85C92.2305 132.459 92.4766 132.139 92.7773 131.889ZM94.623 131.889L95.2441 132.311C94.8809 132.807 94.6934 133.342 94.6816 133.916V134.713H93.6035V134.033C93.6035 133.635 93.6973 133.24 93.8848 132.85C94.0762 132.459 94.3223 132.139 94.623 131.889ZM98.5488 137.033L97.5059 138.117V141H96.3809V132.469H97.5059V136.688L101.297 132.469H102.656L99.2988 136.236L102.92 141H101.572L98.5488 137.033ZM107.508 140.373C107.086 140.869 106.467 141.117 105.65 141.117C104.975 141.117 104.459 140.922 104.104 140.531C103.752 140.137 103.574 139.555 103.57 138.785V134.66H104.654V138.756C104.654 139.717 105.045 140.197 105.826 140.197C106.654 140.197 107.205 139.889 107.479 139.271V134.66H108.562V141H107.531L107.508 140.373ZM111.24 134.66L111.275 135.457C111.76 134.848 112.393 134.543 113.174 134.543C114.514 134.543 115.189 135.299 115.201 136.811V141H114.117V136.805C114.113 136.348 114.008 136.01 113.801 135.791C113.598 135.572 113.279 135.463 112.846 135.463C112.494 135.463 112.186 135.557 111.92 135.744C111.654 135.932 111.447 136.178 111.299 136.482V141H110.215V134.66H111.24ZM116.578 137.777C116.578 136.789 116.807 136.004 117.264 135.422C117.721 134.836 118.326 134.543 119.08 134.543C119.854 134.543 120.457 134.816 120.891 135.363L120.943 134.66H121.934V140.848C121.934 141.668 121.689 142.314 121.201 142.787C120.717 143.26 120.064 143.496 119.244 143.496C118.787 143.496 118.34 143.398 117.902 143.203C117.465 143.008 117.131 142.74 116.9 142.4L117.463 141.75C117.928 142.324 118.496 142.611 119.168 142.611C119.695 142.611 120.105 142.463 120.398 142.166C120.695 141.869 120.844 141.451 120.844 140.912V140.367C120.41 140.867 119.818 141.117 119.068 141.117C118.326 141.117 117.725 140.818 117.264 140.221C116.807 139.623 116.578 138.809 116.578 137.777ZM117.668 137.9C117.668 138.615 117.814 139.178 118.107 139.588C118.4 139.994 118.811 140.197 119.338 140.197C120.021 140.197 120.523 139.887 120.844 139.266V136.371C120.512 135.766 120.014 135.463 119.35 135.463C118.822 135.463 118.41 135.668 118.113 136.078C117.816 136.488 117.668 137.096 117.668 137.9ZM131.426 137.232H127.846V141H126.721V132.469H132.006V133.395H127.846V136.312H131.426V137.232ZM136.969 140.373C136.547 140.869 135.928 141.117 135.111 141.117C134.436 141.117 133.92 140.922 133.564 140.531C133.213 140.137 133.035 139.555 133.031 138.785V134.66H134.115V138.756C134.115 139.717 134.506 140.197 135.287 140.197C136.115 140.197 136.666 139.889 136.939 139.271V134.66H138.023V141H136.992L136.969 140.373ZM143.947 137.66V141H142.822V132.469H145.969C146.902 132.469 147.633 132.707 148.16 133.184C148.691 133.66 148.957 134.291 148.957 135.076C148.957 135.904 148.697 136.543 148.178 136.992C147.662 137.438 146.922 137.66 145.957 137.66H143.947ZM143.947 136.74H145.969C146.57 136.74 147.031 136.6 147.352 136.318C147.672 136.033 147.832 135.623 147.832 135.088C147.832 134.58 147.672 134.174 147.352 133.869C147.031 133.564 146.592 133.406 146.033 133.395H143.947V136.74ZM154.066 141C154.004 140.875 153.953 140.652 153.914 140.332C153.41 140.855 152.809 141.117 152.109 141.117C151.484 141.117 150.971 140.941 150.568 140.59C150.17 140.234 149.971 139.785 149.971 139.242C149.971 138.582 150.221 138.07 150.721 137.707C151.225 137.34 151.932 137.156 152.842 137.156H153.896V136.658C153.896 136.279 153.783 135.979 153.557 135.756C153.33 135.529 152.996 135.416 152.555 135.416C152.168 135.416 151.844 135.514 151.582 135.709C151.32 135.904 151.189 136.141 151.189 136.418H150.1C150.1 136.102 150.211 135.797 150.434 135.504C150.66 135.207 150.965 134.973 151.348 134.801C151.734 134.629 152.158 134.543 152.619 134.543C153.35 134.543 153.922 134.727 154.336 135.094C154.75 135.457 154.965 135.959 154.98 136.6V139.518C154.98 140.1 155.055 140.562 155.203 140.906V141H154.066ZM152.268 140.174C152.607 140.174 152.93 140.086 153.234 139.91C153.539 139.734 153.76 139.506 153.896 139.225V137.924H153.047C151.719 137.924 151.055 138.312 151.055 139.09C151.055 139.43 151.168 139.695 151.395 139.887C151.621 140.078 151.912 140.174 152.268 140.174ZM157.705 134.66L157.74 135.457C158.225 134.848 158.857 134.543 159.639 134.543C160.979 134.543 161.654 135.299 161.666 136.811V141H160.582V136.805C160.578 136.348 160.473 136.01 160.266 135.791C160.062 135.572 159.744 135.463 159.311 135.463C158.959 135.463 158.65 135.557 158.385 135.744C158.119 135.932 157.912 136.178 157.764 136.482V141H156.68V134.66H157.705ZM163.037 137.777C163.037 136.805 163.268 136.023 163.729 135.434C164.189 134.84 164.793 134.543 165.539 134.543C166.281 134.543 166.869 134.797 167.303 135.305V132H168.387V141H167.391L167.338 140.32C166.904 140.852 166.301 141.117 165.527 141.117C164.793 141.117 164.193 140.816 163.729 140.215C163.268 139.613 163.037 138.828 163.037 137.859V137.777ZM164.121 137.9C164.121 138.619 164.27 139.182 164.566 139.588C164.863 139.994 165.273 140.197 165.797 140.197C166.484 140.197 166.986 139.889 167.303 139.271V136.359C166.979 135.762 166.48 135.463 165.809 135.463C165.277 135.463 164.863 135.668 164.566 136.078C164.27 136.488 164.121 137.096 164.121 137.9ZM173.988 141C173.926 140.875 173.875 140.652 173.836 140.332C173.332 140.855 172.73 141.117 172.031 141.117C171.406 141.117 170.893 140.941 170.49 140.59C170.092 140.234 169.893 139.785 169.893 139.242C169.893 138.582 170.143 138.07 170.643 137.707C171.146 137.34 171.854 137.156 172.764 137.156H173.818V136.658C173.818 136.279 173.705 135.979 173.479 135.756C173.252 135.529 172.918 135.416 172.477 135.416C172.09 135.416 171.766 135.514 171.504 135.709C171.242 135.904 171.111 136.141 171.111 136.418H170.021C170.021 136.102 170.133 135.797 170.355 135.504C170.582 135.207 170.887 134.973 171.27 134.801C171.656 134.629 172.08 134.543 172.541 134.543C173.271 134.543 173.844 134.727 174.258 135.094C174.672 135.457 174.887 135.959 174.902 136.6V139.518C174.902 140.1 174.977 140.562 175.125 140.906V141H173.988ZM172.189 140.174C172.529 140.174 172.852 140.086 173.156 139.91C173.461 139.734 173.682 139.506 173.818 139.225V137.924H172.969C171.641 137.924 170.977 138.312 170.977 139.09C170.977 139.43 171.09 139.695 171.316 139.887C171.543 140.078 171.834 140.174 172.189 140.174ZM176.35 134.871L175.734 134.449C176.098 133.941 176.285 133.406 176.297 132.844V132H177.369V132.762C177.365 133.152 177.268 133.543 177.076 133.934C176.889 134.32 176.646 134.633 176.35 134.871ZM178.148 134.871L177.533 134.449C177.896 133.941 178.084 133.406 178.096 132.844V132H179.168V132.762C179.164 133.152 179.066 133.543 178.875 133.934C178.688 134.32 178.445 134.633 178.148 134.871ZM27.1113 170.471C27.9043 170.217 28.3145 169.57 28.3418 168.531V167.242C28.3418 166.34 28.6953 165.725 29.4023 165.396C28.6953 165.076 28.3418 164.461 28.3418 163.551V162.361C28.3418 161.26 27.9336 160.578 27.1172 160.316L27.3398 159.643C28.0312 159.838 28.5508 160.156 28.8984 160.598C29.2461 161.035 29.4219 161.615 29.4258 162.338V163.568C29.4258 164.502 29.8398 164.969 30.668 164.969V165.818C29.8398 165.818 29.4258 166.293 29.4258 167.242V168.426C29.4258 169.16 29.248 169.748 28.8926 170.189C28.541 170.631 28.0234 170.949 27.3398 171.145L27.1113 170.471Z" fill="black"/>
<g filter="url(#filter0_d)">
<path d="M221 182C220.448 182 220 182.448 220 183L220 192C220 192.552 220.448 193 221 193C221.552 193 222 192.552 222 192L222 184L230 184C230.552 184 231 183.552 231 183C231 182.448 230.552 182 230 182L221 182ZM264.562 225.147L221.707 182.293L220.293 183.707L263.147 226.562L264.562 225.147Z" fill="#3E57AF"/>
</g>
<g filter="url(#filter1_d)">
<rect x="6" y="51" width="211" height="129" stroke="#3E57AF" stroke-width="3" stroke-linejoin="round"/>
</g>
<path d="M268.156 240V228.625H271.516C272.521 228.625 273.411 228.849 274.188 229.297C274.969 229.745 275.573 230.38 276 231.203C276.427 232.026 276.641 232.969 276.641 234.031V234.602C276.641 235.68 276.424 236.628 275.992 237.445C275.565 238.263 274.953 238.893 274.156 239.336C273.365 239.779 272.456 240 271.43 240H268.156ZM270.133 230.219V238.422H271.422C272.458 238.422 273.253 238.099 273.805 237.453C274.362 236.802 274.646 235.87 274.656 234.656V234.023C274.656 232.789 274.388 231.846 273.852 231.195C273.315 230.544 272.536 230.219 271.516 230.219H270.133ZM278.07 235.695C278.07 234.867 278.234 234.122 278.562 233.461C278.891 232.794 279.352 232.284 279.945 231.93C280.539 231.57 281.221 231.391 281.992 231.391C283.133 231.391 284.057 231.758 284.766 232.492C285.479 233.227 285.865 234.201 285.922 235.414L285.93 235.859C285.93 236.693 285.768 237.438 285.445 238.094C285.128 238.75 284.669 239.258 284.07 239.617C283.477 239.977 282.789 240.156 282.008 240.156C280.815 240.156 279.859 239.76 279.141 238.969C278.427 238.172 278.07 237.112 278.07 235.789V235.695ZM279.969 235.859C279.969 236.729 280.148 237.411 280.508 237.906C280.867 238.396 281.367 238.641 282.008 238.641C282.648 238.641 283.146 238.391 283.5 237.891C283.859 237.391 284.039 236.659 284.039 235.695C284.039 234.841 283.854 234.164 283.484 233.664C283.12 233.164 282.622 232.914 281.992 232.914C281.372 232.914 280.88 233.161 280.516 233.656C280.151 234.146 279.969 234.88 279.969 235.859ZM291.008 238.641C291.482 238.641 291.875 238.503 292.188 238.227C292.5 237.951 292.667 237.609 292.688 237.203H294.477C294.456 237.729 294.292 238.221 293.984 238.68C293.677 239.133 293.26 239.492 292.734 239.758C292.208 240.023 291.641 240.156 291.031 240.156C289.849 240.156 288.911 239.773 288.219 239.008C287.526 238.242 287.18 237.185 287.18 235.836V235.641C287.18 234.354 287.523 233.326 288.211 232.555C288.898 231.779 289.836 231.391 291.023 231.391C292.029 231.391 292.846 231.685 293.477 232.273C294.112 232.857 294.445 233.625 294.477 234.578H292.688C292.667 234.094 292.5 233.695 292.188 233.383C291.88 233.07 291.487 232.914 291.008 232.914C290.393 232.914 289.919 233.138 289.586 233.586C289.253 234.029 289.083 234.703 289.078 235.609V235.914C289.078 236.831 289.242 237.516 289.57 237.969C289.904 238.417 290.383 238.641 291.008 238.641ZM301.031 239.172C300.474 239.828 299.682 240.156 298.656 240.156C297.74 240.156 297.044 239.888 296.57 239.352C296.102 238.815 295.867 238.039 295.867 237.023V231.547H297.766V237C297.766 238.073 298.211 238.609 299.102 238.609C300.023 238.609 300.646 238.279 300.969 237.617V231.547H302.867V240H301.078L301.031 239.172ZM306.586 231.547L306.641 232.43C307.234 231.737 308.047 231.391 309.078 231.391C310.208 231.391 310.982 231.823 311.398 232.688C312.013 231.823 312.878 231.391 313.992 231.391C314.924 231.391 315.617 231.648 316.07 232.164C316.529 232.68 316.763 233.44 316.773 234.445V240H314.875V234.5C314.875 233.964 314.758 233.57 314.523 233.32C314.289 233.07 313.901 232.945 313.359 232.945C312.927 232.945 312.573 233.062 312.297 233.297C312.026 233.526 311.836 233.828 311.727 234.203L311.734 240H309.836V234.438C309.81 233.443 309.302 232.945 308.312 232.945C307.552 232.945 307.013 233.255 306.695 233.875V240H304.797V231.547H306.586ZM322.445 240.156C321.242 240.156 320.266 239.779 319.516 239.023C318.771 238.263 318.398 237.253 318.398 235.992V235.758C318.398 234.914 318.56 234.161 318.883 233.5C319.211 232.833 319.669 232.315 320.258 231.945C320.846 231.576 321.503 231.391 322.227 231.391C323.378 231.391 324.266 231.758 324.891 232.492C325.521 233.227 325.836 234.266 325.836 235.609V236.375H320.312C320.37 237.073 320.602 237.625 321.008 238.031C321.419 238.438 321.935 238.641 322.555 238.641C323.424 238.641 324.133 238.289 324.68 237.586L325.703 238.562C325.365 239.068 324.911 239.461 324.344 239.742C323.781 240.018 323.148 240.156 322.445 240.156ZM322.219 232.914C321.698 232.914 321.276 233.096 320.953 233.461C320.635 233.826 320.432 234.333 320.344 234.984H323.961V234.844C323.919 234.208 323.75 233.729 323.453 233.406C323.156 233.078 322.745 232.914 322.219 232.914ZM329.078 231.547L329.133 232.523C329.758 231.768 330.578 231.391 331.594 231.391C333.354 231.391 334.25 232.398 334.281 234.414V240H332.383V234.523C332.383 233.987 332.266 233.591 332.031 233.336C331.802 233.076 331.424 232.945 330.898 232.945C330.133 232.945 329.562 233.292 329.188 233.984V240H327.289V231.547H329.078ZM338.602 229.492V231.547H340.094V232.953H338.602V237.672C338.602 237.995 338.664 238.229 338.789 238.375C338.919 238.516 339.148 238.586 339.477 238.586C339.695 238.586 339.917 238.56 340.141 238.508V239.977C339.708 240.096 339.292 240.156 338.891 240.156C337.432 240.156 336.703 239.352 336.703 237.742V232.953H335.312V231.547H336.703V229.492H338.602Z" fill="#3E57AF"/>
<path d="M281.711 139.18H277.133V144H275.156V132.625H282.383V134.219H277.133V137.602H281.711V139.18ZM285.789 144H283.891V135.547H285.789V144ZM283.773 133.352C283.773 133.06 283.865 132.818 284.047 132.625C284.234 132.432 284.5 132.336 284.844 132.336C285.188 132.336 285.453 132.432 285.641 132.625C285.828 132.818 285.922 133.06 285.922 133.352C285.922 133.638 285.828 133.878 285.641 134.07C285.453 134.258 285.188 134.352 284.844 134.352C284.5 134.352 284.234 134.258 284.047 134.07C283.865 133.878 283.773 133.638 283.773 133.352ZM291.586 144.156C290.383 144.156 289.406 143.779 288.656 143.023C287.911 142.263 287.539 141.253 287.539 139.992V139.758C287.539 138.914 287.701 138.161 288.023 137.5C288.352 136.833 288.81 136.315 289.398 135.945C289.987 135.576 290.643 135.391 291.367 135.391C292.518 135.391 293.406 135.758 294.031 136.492C294.661 137.227 294.977 138.266 294.977 139.609V140.375H289.453C289.51 141.073 289.742 141.625 290.148 142.031C290.56 142.438 291.076 142.641 291.695 142.641C292.565 142.641 293.273 142.289 293.82 141.586L294.844 142.562C294.505 143.068 294.052 143.461 293.484 143.742C292.922 144.018 292.289 144.156 291.586 144.156ZM291.359 136.914C290.839 136.914 290.417 137.096 290.094 137.461C289.776 137.826 289.573 138.333 289.484 138.984H293.102V138.844C293.06 138.208 292.891 137.729 292.594 137.406C292.297 137.078 291.885 136.914 291.359 136.914ZM298.477 144H296.578V132H298.477V144ZM300.195 139.711C300.195 138.409 300.497 137.365 301.102 136.578C301.706 135.786 302.516 135.391 303.531 135.391C304.427 135.391 305.151 135.703 305.703 136.328V132H307.602V144H305.883L305.789 143.125C305.221 143.812 304.464 144.156 303.516 144.156C302.526 144.156 301.724 143.758 301.109 142.961C300.5 142.164 300.195 141.081 300.195 139.711ZM302.094 139.875C302.094 140.734 302.258 141.406 302.586 141.891C302.919 142.37 303.391 142.609 304 142.609C304.776 142.609 305.344 142.263 305.703 141.57V137.961C305.354 137.284 304.792 136.945 304.016 136.945C303.401 136.945 302.927 137.19 302.594 137.68C302.26 138.164 302.094 138.896 302.094 139.875Z" fill="#3EAF7C"/>
<g filter="url(#filter2_d)">
<path d="M201.293 137.293C200.902 137.683 200.902 138.317 201.293 138.707L207.657 145.071C208.047 145.462 208.681 145.462 209.071 145.071C209.462 144.681 209.462 144.047 209.071 143.657L203.414 138L209.071 132.343C209.462 131.953 209.462 131.319 209.071 130.929C208.681 130.538 208.047 130.538 207.657 130.929L201.293 137.293ZM266 137L202 137L202 139L266 139L266 137Z" fill="#3EAF7C"/>
</g>
<g filter="url(#filter3_d)">
<path d="M36 114.5C35.1716 114.5 34.5 115.172 34.5 116V161C34.5 161.828 35.1716 162.5 36 162.5H194C194.828 162.5 195.5 161.828 195.5 161V136.602V116C195.5 115.172 194.828 114.5 194 114.5H36Z" stroke="#3EAF7C" stroke-width="3" stroke-linejoin="round"/>
</g>
<path d="M37.5234 234.352H33.1172L32.1953 237H30.1406L34.4375 225.625H36.2109L40.5156 237H38.4531L37.5234 234.352ZM33.6719 232.758H36.9688L35.3203 228.039L33.6719 232.758ZM43.8672 226.492V228.547H45.3594V229.953H43.8672V234.672C43.8672 234.995 43.9297 235.229 44.0547 235.375C44.1849 235.516 44.4141 235.586 44.7422 235.586C44.9609 235.586 45.1823 235.56 45.4062 235.508V236.977C44.974 237.096 44.5573 237.156 44.1562 237.156C42.6979 237.156 41.9688 236.352 41.9688 234.742V229.953H40.5781V228.547H41.9688V226.492H43.8672ZM49.1953 226.492V228.547H50.6875V229.953H49.1953V234.672C49.1953 234.995 49.2578 235.229 49.3828 235.375C49.513 235.516 49.7422 235.586 50.0703 235.586C50.2891 235.586 50.5104 235.56 50.7344 235.508V236.977C50.3021 237.096 49.8854 237.156 49.4844 237.156C48.026 237.156 47.2969 236.352 47.2969 234.742V229.953H45.9062V228.547H47.2969V226.492H49.1953ZM56.5703 230.281C56.3203 230.24 56.0625 230.219 55.7969 230.219C54.9271 230.219 54.3411 230.552 54.0391 231.219V237H52.1406V228.547H53.9531L54 229.492C54.4583 228.758 55.0938 228.391 55.9062 228.391C56.1771 228.391 56.401 228.427 56.5781 228.5L56.5703 230.281ZM59.7891 237H57.8906V228.547H59.7891V237ZM57.7734 226.352C57.7734 226.06 57.8646 225.818 58.0469 225.625C58.2344 225.432 58.5 225.336 58.8438 225.336C59.1875 225.336 59.4531 225.432 59.6406 225.625C59.8281 225.818 59.9219 226.06 59.9219 226.352C59.9219 226.638 59.8281 226.878 59.6406 227.07C59.4531 227.258 59.1875 227.352 58.8438 227.352C58.5 227.352 58.2344 227.258 58.0469 227.07C57.8646 226.878 57.7734 226.638 57.7734 226.352ZM69.2812 232.859C69.2812 234.172 68.987 235.216 68.3984 235.992C67.8151 236.768 67.0104 237.156 65.9844 237.156C64.9948 237.156 64.224 236.799 63.6719 236.086L63.5781 237H61.8594V225H63.7578V229.359C64.3047 228.714 65.0417 228.391 65.9688 228.391C67 228.391 67.8099 228.773 68.3984 229.539C68.987 230.305 69.2812 231.375 69.2812 232.75V232.859ZM67.3828 232.695C67.3828 231.779 67.2214 231.091 66.8984 230.633C66.5755 230.174 66.1068 229.945 65.4922 229.945C64.6693 229.945 64.0911 230.305 63.7578 231.023V234.508C64.0964 235.242 64.6797 235.609 65.5078 235.609C66.1016 235.609 66.5599 235.388 66.8828 234.945C67.2057 234.503 67.3724 233.833 67.3828 232.938V232.695ZM76 236.172C75.4427 236.828 74.651 237.156 73.625 237.156C72.7083 237.156 72.013 236.888 71.5391 236.352C71.0703 235.815 70.8359 235.039 70.8359 234.023V228.547H72.7344V234C72.7344 235.073 73.1797 235.609 74.0703 235.609C74.9922 235.609 75.6146 235.279 75.9375 234.617V228.547H77.8359V237H76.0469L76 236.172ZM82.1484 226.492V228.547H83.6406V229.953H82.1484V234.672C82.1484 234.995 82.2109 235.229 82.3359 235.375C82.4661 235.516 82.6953 235.586 83.0234 235.586C83.2422 235.586 83.4635 235.56 83.6875 235.508V236.977C83.2552 237.096 82.8385 237.156 82.4375 237.156C80.9792 237.156 80.25 236.352 80.25 234.742V229.953H78.8594V228.547H80.25V226.492H82.1484ZM88.8203 237.156C87.6172 237.156 86.6406 236.779 85.8906 236.023C85.1458 235.263 84.7734 234.253 84.7734 232.992V232.758C84.7734 231.914 84.9349 231.161 85.2578 230.5C85.5859 229.833 86.0443 229.315 86.6328 228.945C87.2214 228.576 87.8776 228.391 88.6016 228.391C89.7526 228.391 90.6406 228.758 91.2656 229.492C91.8958 230.227 92.2109 231.266 92.2109 232.609V233.375H86.6875C86.7448 234.073 86.9766 234.625 87.3828 235.031C87.7943 235.438 88.3099 235.641 88.9297 235.641C89.7995 235.641 90.5078 235.289 91.0547 234.586L92.0781 235.562C91.7396 236.068 91.2865 236.461 90.7188 236.742C90.1562 237.018 89.5234 237.156 88.8203 237.156ZM88.5938 229.914C88.0729 229.914 87.651 230.096 87.3281 230.461C87.0104 230.826 86.8073 231.333 86.7188 231.984H90.3359V231.844C90.2943 231.208 90.125 230.729 89.8281 230.406C89.5312 230.078 89.1198 229.914 88.5938 229.914Z" fill="#262330"/>
<g filter="url(#filter4_d)">
<path d="M61.7071 151.293C61.3166 150.902 60.6834 150.902 60.2929 151.293L53.9289 157.657C53.5384 158.047 53.5384 158.681 53.9289 159.071C54.3195 159.462 54.9526 159.462 55.3431 159.071L61 153.414L66.6569 159.071C67.0474 159.462 67.6805 159.462 68.0711 159.071C68.4616 158.681 68.4616 158.047 68.0711 157.657L61.7071 151.293ZM62 217L62 152L60 152L60 217L62 217Z" fill="#262330"/>
</g>
<g filter="url(#filter5_d)">
<rect x="43" y="124" width="37" height="25" stroke="#262330" stroke-width="3" stroke-linejoin="round"/>
</g>
<g filter="url(#filter6_d)">
<path d="M55.4499 81.7088C55.8415 82.0983 56.4747 82.0966 56.8641 81.705L63.2108 75.3237C63.6002 74.9321 63.5985 74.299 63.2069 73.9095C62.8153 73.52 62.1822 73.5218 61.7927 73.9134L56.1513 79.5856L50.479 73.9441C50.0875 73.5547 49.4543 73.5564 49.0648 73.948C48.6754 74.3396 48.6771 74.9727 49.0687 75.3622L55.4499 81.7088ZM55 24.0027L55.1551 81.0025L57.1551 80.9971L57 23.9973L55 24.0027Z" fill="#EA2465"/>
</g>
<g filter="url(#filter7_d)">
<rect x="42" y="85" width="29" height="19" stroke="#EA2465" stroke-width="3" stroke-linejoin="round"/>
</g>
<path d="M16.1328 10.7734V15H14.1562V3.625H18.5078C19.7786 3.625 20.7865 3.95573 21.5312 4.61719C22.2812 5.27865 22.6562 6.15365 22.6562 7.24219C22.6562 8.35677 22.2891 9.22396 21.5547 9.84375C20.8255 10.4635 19.8021 10.7734 18.4844 10.7734H16.1328ZM16.1328 9.1875H18.5078C19.2109 9.1875 19.7474 9.02344 20.1172 8.69531C20.487 8.36198 20.6719 7.88281 20.6719 7.25781C20.6719 6.64323 20.4844 6.15365 20.1094 5.78906C19.7344 5.41927 19.2188 5.22917 18.5625 5.21875H16.1328V9.1875ZM28.6328 8.28125C28.3828 8.23958 28.125 8.21875 27.8594 8.21875C26.9896 8.21875 26.4036 8.55208 26.1016 9.21875V15H24.2031V6.54688H26.0156L26.0625 7.49219C26.5208 6.75781 27.1562 6.39062 27.9688 6.39062C28.2396 6.39062 28.4635 6.42708 28.6406 6.5L28.6328 8.28125ZM31.8516 15H29.9531V6.54688H31.8516V15ZM29.8359 4.35156C29.8359 4.0599 29.9271 3.81771 30.1094 3.625C30.2969 3.43229 30.5625 3.33594 30.9062 3.33594C31.25 3.33594 31.5156 3.43229 31.7031 3.625C31.8906 3.81771 31.9844 4.0599 31.9844 4.35156C31.9844 4.63802 31.8906 4.8776 31.7031 5.07031C31.5156 5.25781 31.25 5.35156 30.9062 5.35156C30.5625 5.35156 30.2969 5.25781 30.1094 5.07031C29.9271 4.8776 29.8359 4.63802 29.8359 4.35156ZM35.7109 6.54688L35.7656 7.42969C36.3594 6.73698 37.1719 6.39062 38.2031 6.39062C39.3333 6.39062 40.1068 6.82292 40.5234 7.6875C41.138 6.82292 42.0026 6.39062 43.1172 6.39062C44.0495 6.39062 44.7422 6.64844 45.1953 7.16406C45.6536 7.67969 45.888 8.4401 45.8984 9.44531V15H44V9.5C44 8.96354 43.8828 8.57031 43.6484 8.32031C43.4141 8.07031 43.026 7.94531 42.4844 7.94531C42.0521 7.94531 41.6979 8.0625 41.4219 8.29688C41.151 8.52604 40.9609 8.82812 40.8516 9.20312L40.8594 15H38.9609V9.4375C38.9349 8.44271 38.4271 7.94531 37.4375 7.94531C36.6771 7.94531 36.138 8.25521 35.8203 8.875V15H33.9219V6.54688H35.7109ZM52.8984 15C52.8151 14.8385 52.7422 14.5755 52.6797 14.2109C52.0755 14.8411 51.3359 15.1562 50.4609 15.1562C49.612 15.1562 48.9193 14.9141 48.3828 14.4297C47.8464 13.9453 47.5781 13.3464 47.5781 12.6328C47.5781 11.7318 47.9115 11.0417 48.5781 10.5625C49.25 10.0781 50.2083 9.83594 51.4531 9.83594H52.6172V9.28125C52.6172 8.84375 52.4948 8.49479 52.25 8.23438C52.0052 7.96875 51.6328 7.83594 51.1328 7.83594C50.7005 7.83594 50.3464 7.94531 50.0703 8.16406C49.7943 8.3776 49.6562 8.65104 49.6562 8.98438H47.7578C47.7578 8.52083 47.9115 8.08854 48.2188 7.6875C48.526 7.28125 48.9427 6.96354 49.4688 6.73438C50 6.50521 50.5911 6.39062 51.2422 6.39062C52.2318 6.39062 53.0208 6.64062 53.6094 7.14062C54.1979 7.63542 54.5 8.33333 54.5156 9.23438V13.0469C54.5156 13.8073 54.6224 14.4141 54.8359 14.8672V15H52.8984ZM50.8125 13.6328C51.1875 13.6328 51.5391 13.5417 51.8672 13.3594C52.2005 13.1771 52.4505 12.9323 52.6172 12.625V11.0312H51.5938C50.8906 11.0312 50.362 11.1536 50.0078 11.3984C49.6536 11.6432 49.4766 11.9896 49.4766 12.4375C49.4766 12.8021 49.5964 13.0938 49.8359 13.3125C50.0807 13.526 50.4062 13.6328 50.8125 13.6328ZM60.9297 8.28125C60.6797 8.23958 60.4219 8.21875 60.1562 8.21875C59.2865 8.21875 58.7005 8.55208 58.3984 9.21875V15H56.5V6.54688H58.3125L58.3594 7.49219C58.8177 6.75781 59.4531 6.39062 60.2656 6.39062C60.5365 6.39062 60.7604 6.42708 60.9375 6.5L60.9297 8.28125ZM65.2266 12.2812L66.9453 6.54688H68.9688L65.6094 16.2812C65.0938 17.7031 64.2188 18.4141 62.9844 18.4141C62.7083 18.4141 62.4036 18.3672 62.0703 18.2734V16.8047L62.4297 16.8281C62.9089 16.8281 63.2682 16.7396 63.5078 16.5625C63.7526 16.3906 63.9453 16.099 64.0859 15.6875L64.3594 14.9609L61.3906 6.54688H63.4375L65.2266 12.2812ZM77.5 10.0859L76.2109 11.4531V15H74.2344V3.625H76.2109V8.96094L77.3047 7.60938L80.6328 3.625H83.0234L78.7969 8.66406L83.2656 15H80.9219L77.5 10.0859ZM87.6641 15.1562C86.4609 15.1562 85.4844 14.7786 84.7344 14.0234C83.9896 13.263 83.6172 12.2526 83.6172 10.9922V10.7578C83.6172 9.91406 83.7786 9.16146 84.1016 8.5C84.4297 7.83333 84.888 7.3151 85.4766 6.94531C86.0651 6.57552 86.7214 6.39062 87.4453 6.39062C88.5964 6.39062 89.4844 6.75781 90.1094 7.49219C90.7396 8.22656 91.0547 9.26562 91.0547 10.6094V11.375H85.5312C85.5885 12.0729 85.8203 12.625 86.2266 13.0312C86.638 13.4375 87.1536 13.6406 87.7734 13.6406C88.6432 13.6406 89.3516 13.2891 89.8984 12.5859L90.9219 13.5625C90.5833 14.0677 90.1302 14.4609 89.5625 14.7422C89 15.0182 88.3672 15.1562 87.6641 15.1562ZM87.4375 7.91406C86.9167 7.91406 86.4948 8.09635 86.1719 8.46094C85.8542 8.82552 85.651 9.33333 85.5625 9.98438H89.1797V9.84375C89.138 9.20833 88.9688 8.72917 88.6719 8.40625C88.375 8.07812 87.9635 7.91406 87.4375 7.91406ZM95.3828 12.2812L97.1016 6.54688H99.125L95.7656 16.2812C95.25 17.7031 94.375 18.4141 93.1406 18.4141C92.8646 18.4141 92.5599 18.3672 92.2266 18.2734V16.8047L92.5859 16.8281C93.0651 16.8281 93.4245 16.7396 93.6641 16.5625C93.9089 16.3906 94.1016 16.099 94.2422 15.6875L94.5156 14.9609L91.5469 6.54688H93.5938L95.3828 12.2812Z" fill="#EA2465"/>
<g filter="url(#filter8_d)">
<rect x="82" y="85" width="53" height="19" stroke="#F8B34C" stroke-width="3" stroke-linejoin="round"/>
</g>
<g filter="url(#filter9_d)">
<path d="M138.293 93.2929C137.902 93.6834 137.902 94.3166 138.293 94.7071L144.657 101.071C145.047 101.462 145.681 101.462 146.071 101.071C146.462 100.681 146.462 100.047 146.071 99.6568L140.414 94L146.071 88.3431C146.462 87.9526 146.462 87.3194 146.071 86.9289C145.681 86.5384 145.047 86.5384 144.657 86.9289L138.293 93.2929ZM247 93L139 93L139 95L247 95L247 93Z" fill="#F8B34C"/>
</g>
<path d="M257.156 100V88.625H260.516C261.521 88.625 262.411 88.849 263.188 89.2969C263.969 89.7448 264.573 90.3802 265 91.2031C265.427 92.026 265.641 92.9688 265.641 94.0312V94.6016C265.641 95.6797 265.424 96.6276 264.992 97.4453C264.565 98.263 263.953 98.8932 263.156 99.3359C262.365 99.7786 261.456 100 260.43 100H257.156ZM259.133 90.2188V98.4219H260.422C261.458 98.4219 262.253 98.099 262.805 97.4531C263.362 96.8021 263.646 95.8698 263.656 94.6562V94.0234C263.656 92.7891 263.388 91.8464 262.852 91.1953C262.315 90.5443 261.536 90.2188 260.516 90.2188H259.133ZM267.07 95.6953C267.07 94.8672 267.234 94.1224 267.562 93.4609C267.891 92.7943 268.352 92.2839 268.945 91.9297C269.539 91.5703 270.221 91.3906 270.992 91.3906C272.133 91.3906 273.057 91.7578 273.766 92.4922C274.479 93.2266 274.865 94.2005 274.922 95.4141L274.93 95.8594C274.93 96.6927 274.768 97.4375 274.445 98.0938C274.128 98.75 273.669 99.2578 273.07 99.6172C272.477 99.9766 271.789 100.156 271.008 100.156C269.815 100.156 268.859 99.7604 268.141 98.9688C267.427 98.1719 267.07 97.112 267.07 95.7891V95.6953ZM268.969 95.8594C268.969 96.7292 269.148 97.4115 269.508 97.9062C269.867 98.3958 270.367 98.6406 271.008 98.6406C271.648 98.6406 272.146 98.3906 272.5 97.8906C272.859 97.3906 273.039 96.6589 273.039 95.6953C273.039 94.8411 272.854 94.1641 272.484 93.6641C272.12 93.1641 271.622 92.9141 270.992 92.9141C270.372 92.9141 269.88 93.1615 269.516 93.6562C269.151 94.1458 268.969 94.8802 268.969 95.8594ZM280.008 98.6406C280.482 98.6406 280.875 98.5026 281.188 98.2266C281.5 97.9505 281.667 97.6094 281.688 97.2031H283.477C283.456 97.7292 283.292 98.2214 282.984 98.6797C282.677 99.1328 282.26 99.4922 281.734 99.7578C281.208 100.023 280.641 100.156 280.031 100.156C278.849 100.156 277.911 99.7734 277.219 99.0078C276.526 98.2422 276.18 97.1849 276.18 95.8359V95.6406C276.18 94.3542 276.523 93.3255 277.211 92.5547C277.898 91.7786 278.836 91.3906 280.023 91.3906C281.029 91.3906 281.846 91.6849 282.477 92.2734C283.112 92.8568 283.445 93.625 283.477 94.5781H281.688C281.667 94.0938 281.5 93.6953 281.188 93.3828C280.88 93.0703 280.487 92.9141 280.008 92.9141C279.393 92.9141 278.919 93.138 278.586 93.5859C278.253 94.0286 278.083 94.7031 278.078 95.6094V95.9141C278.078 96.8307 278.242 97.5156 278.57 97.9688C278.904 98.4167 279.383 98.6406 280.008 98.6406ZM290.031 99.1719C289.474 99.8281 288.682 100.156 287.656 100.156C286.74 100.156 286.044 99.888 285.57 99.3516C285.102 98.8151 284.867 98.0391 284.867 97.0234V91.5469H286.766V97C286.766 98.0729 287.211 98.6094 288.102 98.6094C289.023 98.6094 289.646 98.2786 289.969 97.6172V91.5469H291.867V100H290.078L290.031 99.1719ZM295.586 91.5469L295.641 92.4297C296.234 91.737 297.047 91.3906 298.078 91.3906C299.208 91.3906 299.982 91.8229 300.398 92.6875C301.013 91.8229 301.878 91.3906 302.992 91.3906C303.924 91.3906 304.617 91.6484 305.07 92.1641C305.529 92.6797 305.763 93.4401 305.773 94.4453V100H303.875V94.5C303.875 93.9635 303.758 93.5703 303.523 93.3203C303.289 93.0703 302.901 92.9453 302.359 92.9453C301.927 92.9453 301.573 93.0625 301.297 93.2969C301.026 93.526 300.836 93.8281 300.727 94.2031L300.734 100H298.836V94.4375C298.81 93.4427 298.302 92.9453 297.312 92.9453C296.552 92.9453 296.013 93.2552 295.695 93.875V100H293.797V91.5469H295.586ZM311.445 100.156C310.242 100.156 309.266 99.7786 308.516 99.0234C307.771 98.263 307.398 97.2526 307.398 95.9922V95.7578C307.398 94.9141 307.56 94.1615 307.883 93.5C308.211 92.8333 308.669 92.3151 309.258 91.9453C309.846 91.5755 310.503 91.3906 311.227 91.3906C312.378 91.3906 313.266 91.7578 313.891 92.4922C314.521 93.2266 314.836 94.2656 314.836 95.6094V96.375H309.312C309.37 97.0729 309.602 97.625 310.008 98.0312C310.419 98.4375 310.935 98.6406 311.555 98.6406C312.424 98.6406 313.133 98.2891 313.68 97.5859L314.703 98.5625C314.365 99.0677 313.911 99.4609 313.344 99.7422C312.781 100.018 312.148 100.156 311.445 100.156ZM311.219 92.9141C310.698 92.9141 310.276 93.0964 309.953 93.4609C309.635 93.8255 309.432 94.3333 309.344 94.9844H312.961V94.8438C312.919 94.2083 312.75 93.7292 312.453 93.4062C312.156 93.0781 311.745 92.9141 311.219 92.9141ZM318.078 91.5469L318.133 92.5234C318.758 91.7682 319.578 91.3906 320.594 91.3906C322.354 91.3906 323.25 92.3984 323.281 94.4141V100H321.383V94.5234C321.383 93.987 321.266 93.5911 321.031 93.3359C320.802 93.0755 320.424 92.9453 319.898 92.9453C319.133 92.9453 318.562 93.2917 318.188 93.9844V100H316.289V91.5469H318.078ZM327.602 89.4922V91.5469H329.094V92.9531H327.602V97.6719C327.602 97.9948 327.664 98.2292 327.789 98.375C327.919 98.5156 328.148 98.5859 328.477 98.5859C328.695 98.5859 328.917 98.5599 329.141 98.5078V99.9766C328.708 100.096 328.292 100.156 327.891 100.156C326.432 100.156 325.703 99.3516 325.703 97.7422V92.9531H324.312V91.5469H325.703V89.4922H327.602ZM336.805 100H334.836V88.625H336.805V100ZM338.695 95.7109C338.695 94.4089 338.997 93.3646 339.602 92.5781C340.206 91.7865 341.016 91.3906 342.031 91.3906C342.927 91.3906 343.651 91.7031 344.203 92.3281V88H346.102V100H344.383L344.289 99.125C343.721 99.8125 342.964 100.156 342.016 100.156C341.026 100.156 340.224 99.7578 339.609 98.9609C339 98.1641 338.695 97.0807 338.695 95.7109ZM340.594 95.875C340.594 96.7344 340.758 97.4062 341.086 97.8906C341.419 98.3698 341.891 98.6094 342.5 98.6094C343.276 98.6094 343.844 98.263 344.203 97.5703V93.9609C343.854 93.2839 343.292 92.9453 342.516 92.9453C341.901 92.9453 341.427 93.1901 341.094 93.6797C340.76 94.1641 340.594 94.8958 340.594 95.875Z" fill="#F8B34C"/>
<g filter="url(#filter10_d)">
<rect x="88" y="123" width="95" height="26" stroke="#AF3E9D" stroke-width="3" stroke-linejoin="round"/>
</g>
<g filter="url(#filter11_d)">
<path d="M136.707 151.293C136.317 150.902 135.683 150.902 135.293 151.293L128.929 157.657C128.538 158.047 128.538 158.681 128.929 159.071C129.319 159.462 129.953 159.462 130.343 159.071L136 153.414L141.657 159.071C142.047 159.462 142.681 159.462 143.071 159.071C143.462 158.681 143.462 158.047 143.071 157.657L136.707 151.293ZM137 217L137 152L135 152L135 217L137 217Z" fill="#AF3E9D"/>
</g>
<path d="M121.164 233.523L124.055 224.625H126.227L122.133 236H120.219L116.141 224.625H118.305L121.164 233.523ZM132.023 236C131.94 235.839 131.867 235.576 131.805 235.211C131.201 235.841 130.461 236.156 129.586 236.156C128.737 236.156 128.044 235.914 127.508 235.43C126.971 234.945 126.703 234.346 126.703 233.633C126.703 232.732 127.036 232.042 127.703 231.562C128.375 231.078 129.333 230.836 130.578 230.836H131.742V230.281C131.742 229.844 131.62 229.495 131.375 229.234C131.13 228.969 130.758 228.836 130.258 228.836C129.826 228.836 129.471 228.945 129.195 229.164C128.919 229.378 128.781 229.651 128.781 229.984H126.883C126.883 229.521 127.036 229.089 127.344 228.688C127.651 228.281 128.068 227.964 128.594 227.734C129.125 227.505 129.716 227.391 130.367 227.391C131.357 227.391 132.146 227.641 132.734 228.141C133.323 228.635 133.625 229.333 133.641 230.234V234.047C133.641 234.807 133.747 235.414 133.961 235.867V236H132.023ZM129.938 234.633C130.312 234.633 130.664 234.542 130.992 234.359C131.326 234.177 131.576 233.932 131.742 233.625V232.031H130.719C130.016 232.031 129.487 232.154 129.133 232.398C128.779 232.643 128.602 232.99 128.602 233.438C128.602 233.802 128.721 234.094 128.961 234.312C129.206 234.526 129.531 234.633 129.938 234.633ZM137.648 236H135.75V224H137.648V236ZM144.844 235.172C144.286 235.828 143.495 236.156 142.469 236.156C141.552 236.156 140.857 235.888 140.383 235.352C139.914 234.815 139.68 234.039 139.68 233.023V227.547H141.578V233C141.578 234.073 142.023 234.609 142.914 234.609C143.836 234.609 144.458 234.279 144.781 233.617V227.547H146.68V236H144.891L144.844 235.172ZM152.336 236.156C151.133 236.156 150.156 235.779 149.406 235.023C148.661 234.263 148.289 233.253 148.289 231.992V231.758C148.289 230.914 148.451 230.161 148.773 229.5C149.102 228.833 149.56 228.315 150.148 227.945C150.737 227.576 151.393 227.391 152.117 227.391C153.268 227.391 154.156 227.758 154.781 228.492C155.411 229.227 155.727 230.266 155.727 231.609V232.375H150.203C150.26 233.073 150.492 233.625 150.898 234.031C151.31 234.438 151.826 234.641 152.445 234.641C153.315 234.641 154.023 234.289 154.57 233.586L155.594 234.562C155.255 235.068 154.802 235.461 154.234 235.742C153.672 236.018 153.039 236.156 152.336 236.156ZM152.109 228.914C151.589 228.914 151.167 229.096 150.844 229.461C150.526 229.826 150.323 230.333 150.234 230.984H153.852V230.844C153.81 230.208 153.641 229.729 153.344 229.406C153.047 229.078 152.635 228.914 152.109 228.914Z" fill="#AF3E9D"/>
<defs>
<filter id="filter0_d" x="211.086" y="177.086" width="61.9757" height="61.9757" filterUnits="userSpaceOnUse" color-interpolation-filters="sRGB">
<feFlood flood-opacity="0" result="BackgroundImageFix"/>
<feColorMatrix in="SourceAlpha" type="matrix" values="0 0 0 0 0 0 0 0 0 0 0 0 0 0 0 0 0 0 127 0"/>
<feOffset dy="4"/>
<feGaussianBlur stdDeviation="2"/>
<feColorMatrix type="matrix" values="0 0 0 0 0 0 0 0 0 0 0 0 0 0 0 0 0 0 0.25 0"/>
<feBlend mode="normal" in2="BackgroundImageFix" result="effect1_dropShadow"/>
<feBlend mode="normal" in="SourceGraphic" in2="effect1_dropShadow" result="shape"/>
</filter>
<filter id="filter1_d" x="0.5" y="49.5" width="222" height="140" filterUnits="userSpaceOnUse" color-interpolation-filters="sRGB">
<feFlood flood-opacity="0" result="BackgroundImageFix"/>
<feColorMatrix in="SourceAlpha" type="matrix" values="0 0 0 0 0 0 0 0 0 0 0 0 0 0 0 0 0 0 127 0"/>
<feOffset dy="4"/>
<feGaussianBlur stdDeviation="2"/>
<feColorMatrix type="matrix" values="0 0 0 0 0 0 0 0 0 0 0 0 0 0 0 0 0 0 0.25 0"/>
<feBlend mode="normal" in2="BackgroundImageFix" result="effect1_dropShadow"/>
<feBlend mode="normal" in="SourceGraphic" in2="effect1_dropShadow" result="shape"/>
</filter>
<filter id="filter2_d" x="197" y="130.636" width="73" height="22.7279" filterUnits="userSpaceOnUse" color-interpolation-filters="sRGB">
<feFlood flood-opacity="0" result="BackgroundImageFix"/>
<feColorMatrix in="SourceAlpha" type="matrix" values="0 0 0 0 0 0 0 0 0 0 0 0 0 0 0 0 0 0 127 0"/>
<feOffset dy="4"/>
<feGaussianBlur stdDeviation="2"/>
<feColorMatrix type="matrix" values="0 0 0 0 0 0 0 0 0 0 0 0 0 0 0 0 0 0 0.25 0"/>
<feBlend mode="normal" in2="BackgroundImageFix" result="effect1_dropShadow"/>
<feBlend mode="normal" in="SourceGraphic" in2="effect1_dropShadow" result="shape"/>
</filter>
<filter id="filter3_d" x="29" y="113" width="172" height="59" filterUnits="userSpaceOnUse" color-interpolation-filters="sRGB">
<feFlood flood-opacity="0" result="BackgroundImageFix"/>
<feColorMatrix in="SourceAlpha" type="matrix" values="0 0 0 0 0 0 0 0 0 0 0 0 0 0 0 0 0 0 127 0"/>
<feOffset dy="4"/>
<feGaussianBlur stdDeviation="2"/>
<feColorMatrix type="matrix" values="0 0 0 0 0 0 0 0 0 0 0 0 0 0 0 0 0 0 0.25 0"/>
<feBlend mode="normal" in2="BackgroundImageFix" result="effect1_dropShadow"/>
<feBlend mode="normal" in="SourceGraphic" in2="effect1_dropShadow" result="shape"/>
</filter>
<filter id="filter4_d" x="49.636" y="151" width="22.7279" height="74" filterUnits="userSpaceOnUse" color-interpolation-filters="sRGB">
<feFlood flood-opacity="0" result="BackgroundImageFix"/>
<feColorMatrix in="SourceAlpha" type="matrix" values="0 0 0 0 0 0 0 0 0 0 0 0 0 0 0 0 0 0 127 0"/>
<feOffset dy="4"/>
<feGaussianBlur stdDeviation="2"/>
<feColorMatrix type="matrix" values="0 0 0 0 0 0 0 0 0 0 0 0 0 0 0 0 0 0 0.25 0"/>
<feBlend mode="normal" in2="BackgroundImageFix" result="effect1_dropShadow"/>
<feBlend mode="normal" in="SourceGraphic" in2="effect1_dropShadow" result="shape"/>
</filter>
<filter id="filter5_d" x="37.5" y="122.5" width="48" height="36" filterUnits="userSpaceOnUse" color-interpolation-filters="sRGB">
<feFlood flood-opacity="0" result="BackgroundImageFix"/>
<feColorMatrix in="SourceAlpha" type="matrix" values="0 0 0 0 0 0 0 0 0 0 0 0 0 0 0 0 0 0 127 0"/>
<feOffset dy="4"/>
<feGaussianBlur stdDeviation="2"/>
<feColorMatrix type="matrix" values="0 0 0 0 0 0 0 0 0 0 0 0 0 0 0 0 0 0 0.25 0"/>
<feBlend mode="normal" in2="BackgroundImageFix" result="effect1_dropShadow"/>
<feBlend mode="normal" in="SourceGraphic" in2="effect1_dropShadow" result="shape"/>
</filter>
<filter id="filter6_d" x="44.6361" y="23.98" width="22.8857" height="66.0399" filterUnits="userSpaceOnUse" color-interpolation-filters="sRGB">
<feFlood flood-opacity="0" result="BackgroundImageFix"/>
<feColorMatrix in="SourceAlpha" type="matrix" values="0 0 0 0 0 0 0 0 0 0 0 0 0 0 0 0 0 0 127 0"/>
<feOffset dy="4"/>
<feGaussianBlur stdDeviation="2"/>
<feColorMatrix type="matrix" values="0 0 0 0 0 0 0 0 0 0 0 0 0 0 0 0 0 0 0.25 0"/>
<feBlend mode="normal" in2="BackgroundImageFix" result="effect1_dropShadow"/>
<feBlend mode="normal" in="SourceGraphic" in2="effect1_dropShadow" result="shape"/>
</filter>
<filter id="filter7_d" x="36.5" y="83.5" width="40" height="30" filterUnits="userSpaceOnUse" color-interpolation-filters="sRGB">
<feFlood flood-opacity="0" result="BackgroundImageFix"/>
<feColorMatrix in="SourceAlpha" type="matrix" values="0 0 0 0 0 0 0 0 0 0 0 0 0 0 0 0 0 0 127 0"/>
<feOffset dy="4"/>
<feGaussianBlur stdDeviation="2"/>
<feColorMatrix type="matrix" values="0 0 0 0 0 0 0 0 0 0 0 0 0 0 0 0 0 0 0.25 0"/>
<feBlend mode="normal" in2="BackgroundImageFix" result="effect1_dropShadow"/>
<feBlend mode="normal" in="SourceGraphic" in2="effect1_dropShadow" result="shape"/>
</filter>
<filter id="filter8_d" x="76.5" y="83.5" width="64" height="30" filterUnits="userSpaceOnUse" color-interpolation-filters="sRGB">
<feFlood flood-opacity="0" result="BackgroundImageFix"/>
<feColorMatrix in="SourceAlpha" type="matrix" values="0 0 0 0 0 0 0 0 0 0 0 0 0 0 0 0 0 0 127 0"/>
<feOffset dy="4"/>
<feGaussianBlur stdDeviation="2"/>
<feColorMatrix type="matrix" values="0 0 0 0 0 0 0 0 0 0 0 0 0 0 0 0 0 0 0.25 0"/>
<feBlend mode="normal" in2="BackgroundImageFix" result="effect1_dropShadow"/>
<feBlend mode="normal" in="SourceGraphic" in2="effect1_dropShadow" result="shape"/>
</filter>
<filter id="filter9_d" x="134" y="86.636" width="117" height="22.7279" filterUnits="userSpaceOnUse" color-interpolation-filters="sRGB">
<feFlood flood-opacity="0" result="BackgroundImageFix"/>
<feColorMatrix in="SourceAlpha" type="matrix" values="0 0 0 0 0 0 0 0 0 0 0 0 0 0 0 0 0 0 127 0"/>
<feOffset dy="4"/>
<feGaussianBlur stdDeviation="2"/>
<feColorMatrix type="matrix" values="0 0 0 0 0 0 0 0 0 0 0 0 0 0 0 0 0 0 0.25 0"/>
<feBlend mode="normal" in2="BackgroundImageFix" result="effect1_dropShadow"/>
<feBlend mode="normal" in="SourceGraphic" in2="effect1_dropShadow" result="shape"/>
</filter>
<filter id="filter10_d" x="82.5" y="121.5" width="106" height="37" filterUnits="userSpaceOnUse" color-interpolation-filters="sRGB">
<feFlood flood-opacity="0" result="BackgroundImageFix"/>
<feColorMatrix in="SourceAlpha" type="matrix" values="0 0 0 0 0 0 0 0 0 0 0 0 0 0 0 0 0 0 127 0"/>
<feOffset dy="4"/>
<feGaussianBlur stdDeviation="2"/>
<feColorMatrix type="matrix" values="0 0 0 0 0 0 0 0 0 0 0 0 0 0 0 0 0 0 0.25 0"/>
<feBlend mode="normal" in2="BackgroundImageFix" result="effect1_dropShadow"/>
<feBlend mode="normal" in="SourceGraphic" in2="effect1_dropShadow" result="shape"/>
</filter>
<filter id="filter11_d" x="124.636" y="151" width="22.7279" height="74" filterUnits="userSpaceOnUse" color-interpolation-filters="sRGB">
<feFlood flood-opacity="0" result="BackgroundImageFix"/>
<feColorMatrix in="SourceAlpha" type="matrix" values="0 0 0 0 0 0 0 0 0 0 0 0 0 0 0 0 0 0 127 0"/>
<feOffset dy="4"/>
<feGaussianBlur stdDeviation="2"/>
<feColorMatrix type="matrix" values="0 0 0 0 0 0 0 0 0 0 0 0 0 0 0 0 0 0 0.25 0"/>
<feBlend mode="normal" in2="BackgroundImageFix" result="effect1_dropShadow"/>
<feBlend mode="normal" in="SourceGraphic" in2="effect1_dropShadow" result="shape"/>
</filter>
</defs>
</svg>
