<svg width="378" height="276" viewBox="0 0 378 276" fill="none" xmlns="http://www.w3.org/2000/svg">
<path d="M30.7031 88.1445C30.0117 87.9492 29.4902 87.627 29.1387 87.1777C28.791 86.7324 28.6172 86.1426 28.6172 85.4082V84.2422C28.6172 83.293 28.2031 82.8184 27.375 82.8184V81.9688C28.2031 81.9688 28.6172 81.4961 28.6172 80.5508V79.332C28.625 78.6172 28.7988 78.041 29.1387 77.6035C29.4824 77.1621 30.0039 76.8418 30.7031 76.6426L30.9258 77.3164C30.1094 77.5781 29.7012 78.2598 29.7012 79.3613V80.5449C29.7012 81.4316 29.375 82.0488 28.7227 82.3965C29.375 82.748 29.7012 83.3711 29.7012 84.2656V85.4727C29.7129 86.5469 30.1211 87.2129 30.9258 87.4707L30.7031 88.1445ZM49.4648 104.889L50.0859 105.311C49.7227 105.807 49.5352 106.342 49.5234 106.916V107.713H48.4453V107.033C48.4453 106.635 48.5391 106.24 48.7266 105.85C48.918 105.459 49.1641 105.139 49.4648 104.889ZM51.3105 104.889L51.9316 105.311C51.5684 105.807 51.3809 106.342 51.3691 106.916V107.713H50.291V107.033C50.291 106.635 50.3848 106.24 50.5723 105.85C50.7637 105.459 51.0098 105.139 51.3105 104.889ZM54.0762 114H52.9922V107.66H54.0762V114ZM52.9043 105.979C52.9043 105.803 52.957 105.654 53.0625 105.533C53.1719 105.412 53.332 105.352 53.543 105.352C53.7539 105.352 53.9141 105.412 54.0234 105.533C54.1328 105.654 54.1875 105.803 54.1875 105.979C54.1875 106.154 54.1328 106.301 54.0234 106.418C53.9141 106.535 53.7539 106.594 53.543 106.594C53.332 106.594 53.1719 106.535 53.0625 106.418C52.957 106.301 52.9043 106.154 52.9043 105.979ZM55.5527 110.777C55.5527 109.805 55.7832 109.023 56.2441 108.434C56.7051 107.84 57.3086 107.543 58.0547 107.543C58.7969 107.543 59.3848 107.797 59.8184 108.305V105H60.9023V114H59.9062L59.8535 113.32C59.4199 113.852 58.8164 114.117 58.043 114.117C57.3086 114.117 56.709 113.816 56.2441 113.215C55.7832 112.613 55.5527 111.828 55.5527 110.859V110.777ZM56.6367 110.9C56.6367 111.619 56.7852 112.182 57.082 112.588C57.3789 112.994 57.7891 113.197 58.3125 113.197C59 113.197 59.502 112.889 59.8184 112.271V109.359C59.4941 108.762 58.9961 108.463 58.3242 108.463C57.793 108.463 57.3789 108.668 57.082 109.078C56.7852 109.488 56.6367 110.096 56.6367 110.9ZM62.7363 107.871L62.1211 107.449C62.4844 106.941 62.6719 106.406 62.6836 105.844V105H63.7559V105.762C63.752 106.152 63.6543 106.543 63.4629 106.934C63.2754 107.32 63.0332 107.633 62.7363 107.871ZM64.5352 107.871L63.9199 107.449C64.2832 106.941 64.4707 106.406 64.4824 105.844V105H65.5547V105.762C65.5508 106.152 65.4531 106.543 65.2617 106.934C65.0742 107.32 64.832 107.633 64.5352 107.871ZM75.7734 113.432C75.7734 113.244 75.8281 113.088 75.9375 112.963C76.0508 112.838 76.2188 112.775 76.4414 112.775C76.6641 112.775 76.832 112.838 76.9453 112.963C77.0625 113.088 77.1211 113.244 77.1211 113.432C77.1211 113.611 77.0625 113.762 76.9453 113.883C76.832 114.004 76.6641 114.064 76.4414 114.064C76.2188 114.064 76.0508 114.004 75.9375 113.883C75.8281 113.762 75.7734 113.611 75.7734 113.432ZM75.7793 108.258C75.7793 108.07 75.834 107.914 75.9434 107.789C76.0566 107.664 76.2246 107.602 76.4473 107.602C76.6699 107.602 76.8379 107.664 76.9512 107.789C77.0684 107.914 77.127 108.07 77.127 108.258C77.127 108.438 77.0684 108.588 76.9512 108.709C76.8379 108.83 76.6699 108.891 76.4473 108.891C76.2246 108.891 76.0566 108.83 75.9434 108.709C75.834 108.588 75.7793 108.438 75.7793 108.258ZM85.4766 104.889L86.0977 105.311C85.7344 105.807 85.5469 106.342 85.5352 106.916V107.713H84.457V107.033C84.457 106.635 84.5508 106.24 84.7383 105.85C84.9297 105.459 85.1758 105.139 85.4766 104.889ZM87.3223 104.889L87.9434 105.311C87.5801 105.807 87.3926 106.342 87.3809 106.916V107.713H86.3027V107.033C86.3027 106.635 86.3965 106.24 86.584 105.85C86.7754 105.459 87.0215 105.139 87.3223 104.889ZM92.5312 114C92.4688 113.875 92.418 113.652 92.3789 113.332C91.875 113.855 91.2734 114.117 90.5742 114.117C89.9492 114.117 89.4355 113.941 89.0332 113.59C88.6348 113.234 88.4355 112.785 88.4355 112.242C88.4355 111.582 88.6855 111.07 89.1855 110.707C89.6895 110.34 90.3965 110.156 91.3066 110.156H92.3613V109.658C92.3613 109.279 92.248 108.979 92.0215 108.756C91.7949 108.529 91.4609 108.416 91.0195 108.416C90.6328 108.416 90.3086 108.514 90.0469 108.709C89.7852 108.904 89.6543 109.141 89.6543 109.418H88.5645C88.5645 109.102 88.6758 108.797 88.8984 108.504C89.125 108.207 89.4297 107.973 89.8125 107.801C90.1992 107.629 90.623 107.543 91.084 107.543C91.8145 107.543 92.3867 107.727 92.8008 108.094C93.2148 108.457 93.4297 108.959 93.4453 109.6V112.518C93.4453 113.1 93.5195 113.562 93.668 113.906V114H92.5312ZM90.7324 113.174C91.0723 113.174 91.3945 113.086 91.6992 112.91C92.0039 112.734 92.2246 112.506 92.3613 112.225V110.924H91.5117C90.1836 110.924 89.5195 111.312 89.5195 112.09C89.5195 112.43 89.6328 112.695 89.8594 112.887C90.0859 113.078 90.377 113.174 90.7324 113.174ZM100.512 110.9C100.512 111.869 100.289 112.648 99.8438 113.238C99.3984 113.824 98.8008 114.117 98.0508 114.117C97.25 114.117 96.6309 113.834 96.1934 113.268L96.1406 114H95.1445V105H96.2285V108.357C96.666 107.814 97.2695 107.543 98.0391 107.543C98.8086 107.543 99.4121 107.834 99.8496 108.416C100.291 108.998 100.512 109.795 100.512 110.807V110.9ZM99.4277 110.777C99.4277 110.039 99.2852 109.469 99 109.066C98.7148 108.664 98.3047 108.463 97.7695 108.463C97.0547 108.463 96.541 108.795 96.2285 109.459V112.201C96.5605 112.865 97.0781 113.197 97.7812 113.197C98.3008 113.197 98.7051 112.996 98.9941 112.594C99.2832 112.191 99.4277 111.586 99.4277 110.777ZM108.328 111.293C108.223 112.195 107.889 112.893 107.326 113.385C106.768 113.873 106.023 114.117 105.094 114.117C104.086 114.117 103.277 113.756 102.668 113.033C102.062 112.311 101.76 111.344 101.76 110.133V109.312C101.76 108.52 101.9 107.822 102.182 107.221C102.467 106.619 102.869 106.158 103.389 105.838C103.908 105.514 104.51 105.352 105.193 105.352C106.1 105.352 106.826 105.605 107.373 106.113C107.92 106.617 108.238 107.316 108.328 108.211H107.197C107.1 107.531 106.887 107.039 106.559 106.734C106.234 106.43 105.779 106.277 105.193 106.277C104.475 106.277 103.91 106.543 103.5 107.074C103.094 107.605 102.891 108.361 102.891 109.342V110.168C102.891 111.094 103.084 111.83 103.471 112.377C103.857 112.924 104.398 113.197 105.094 113.197C105.719 113.197 106.197 113.057 106.529 112.775C106.865 112.49 107.088 111.996 107.197 111.293H108.328ZM109.436 110.777C109.436 109.805 109.666 109.023 110.127 108.434C110.588 107.84 111.191 107.543 111.938 107.543C112.68 107.543 113.268 107.797 113.701 108.305V105H114.785V114H113.789L113.736 113.32C113.303 113.852 112.699 114.117 111.926 114.117C111.191 114.117 110.592 113.816 110.127 113.215C109.666 112.613 109.436 111.828 109.436 110.859V110.777ZM110.52 110.9C110.52 111.619 110.668 112.182 110.965 112.588C111.262 112.994 111.672 113.197 112.195 113.197C112.883 113.197 113.385 112.889 113.701 112.271V109.359C113.377 108.762 112.879 108.463 112.207 108.463C111.676 108.463 111.262 108.668 110.965 109.078C110.668 109.488 110.52 110.096 110.52 110.9ZM119.924 114H118.834V106.775L116.648 107.578V106.594L119.754 105.428H119.924V114ZM123.357 107.871L122.742 107.449C123.105 106.941 123.293 106.406 123.305 105.844V105H124.377V105.762C124.373 106.152 124.275 106.543 124.084 106.934C123.896 107.32 123.654 107.633 123.357 107.871ZM125.156 107.871L124.541 107.449C124.904 106.941 125.092 106.406 125.104 105.844V105H126.176V105.762C126.172 106.152 126.074 106.543 125.883 106.934C125.695 107.32 125.453 107.633 125.156 107.871ZM127.465 115.699L126.85 115.277C127.217 114.766 127.408 114.238 127.424 113.695V112.717H128.484V113.566C128.484 113.961 128.387 114.355 128.191 114.75C128 115.145 127.758 115.461 127.465 115.699ZM49.4648 160.889L50.0859 161.311C49.7227 161.807 49.5352 162.342 49.5234 162.916V163.713H48.4453V163.033C48.4453 162.635 48.5391 162.24 48.7266 161.85C48.918 161.459 49.1641 161.139 49.4648 160.889ZM51.3105 160.889L51.9316 161.311C51.5684 161.807 51.3809 162.342 51.3691 162.916V163.713H50.291V163.033C50.291 162.635 50.3848 162.24 50.5723 161.85C50.7637 161.459 51.0098 161.139 51.3105 160.889ZM54.3691 162.125V163.66H55.5527V164.498H54.3691V168.43C54.3691 168.684 54.4219 168.875 54.5273 169.004C54.6328 169.129 54.8125 169.191 55.0664 169.191C55.1914 169.191 55.3633 169.168 55.582 169.121V170C55.2969 170.078 55.0195 170.117 54.75 170.117C54.2656 170.117 53.9004 169.971 53.6543 169.678C53.4082 169.385 53.2852 168.969 53.2852 168.43V164.498H52.1309V163.66H53.2852V162.125H54.3691ZM58.002 170H56.918V163.66H58.002V170ZM56.8301 161.979C56.8301 161.803 56.8828 161.654 56.9883 161.533C57.0977 161.412 57.2578 161.352 57.4688 161.352C57.6797 161.352 57.8398 161.412 57.9492 161.533C58.0586 161.654 58.1133 161.803 58.1133 161.979C58.1133 162.154 58.0586 162.301 57.9492 162.418C57.8398 162.535 57.6797 162.594 57.4688 162.594C57.2578 162.594 57.0977 162.535 56.9883 162.418C56.8828 162.301 56.8301 162.154 56.8301 161.979ZM61.2129 162.125V163.66H62.3965V164.498H61.2129V168.43C61.2129 168.684 61.2656 168.875 61.3711 169.004C61.4766 169.129 61.6562 169.191 61.9102 169.191C62.0352 169.191 62.207 169.168 62.4258 169.121V170C62.1406 170.078 61.8633 170.117 61.5938 170.117C61.1094 170.117 60.7441 169.971 60.498 169.678C60.252 169.385 60.1289 168.969 60.1289 168.43V164.498H58.9746V163.66H60.1289V162.125H61.2129ZM64.8457 170H63.7617V161H64.8457V170ZM69.2168 170.117C68.3574 170.117 67.6582 169.836 67.1191 169.273C66.5801 168.707 66.3105 167.951 66.3105 167.006V166.807C66.3105 166.178 66.4297 165.617 66.668 165.125C66.9102 164.629 67.2461 164.242 67.6758 163.965C68.1094 163.684 68.5781 163.543 69.082 163.543C69.9062 163.543 70.5469 163.814 71.0039 164.357C71.4609 164.9 71.6895 165.678 71.6895 166.689V167.141H67.3945C67.4102 167.766 67.5918 168.271 67.9395 168.658C68.291 169.041 68.7363 169.232 69.2754 169.232C69.6582 169.232 69.9824 169.154 70.248 168.998C70.5137 168.842 70.7461 168.635 70.9453 168.377L71.6074 168.893C71.0762 169.709 70.2793 170.117 69.2168 170.117ZM69.082 164.434C68.6445 164.434 68.2773 164.594 67.9805 164.914C67.6836 165.23 67.5 165.676 67.4297 166.25H70.6055V166.168C70.5742 165.617 70.4258 165.191 70.1602 164.891C69.8945 164.586 69.5352 164.434 69.082 164.434ZM73.0137 163.871L72.3984 163.449C72.7617 162.941 72.9492 162.406 72.9609 161.844V161H74.0332V161.762C74.0293 162.152 73.9316 162.543 73.7402 162.934C73.5527 163.32 73.3105 163.633 73.0137 163.871ZM74.8125 163.871L74.1973 163.449C74.5605 162.941 74.748 162.406 74.7598 161.844V161H75.832V161.762C75.8281 162.152 75.7305 162.543 75.5391 162.934C75.3516 163.32 75.1094 163.633 74.8125 163.871ZM83.0742 169.432C83.0742 169.244 83.1289 169.088 83.2383 168.963C83.3516 168.838 83.5195 168.775 83.7422 168.775C83.9648 168.775 84.1328 168.838 84.2461 168.963C84.3633 169.088 84.4219 169.244 84.4219 169.432C84.4219 169.611 84.3633 169.762 84.2461 169.883C84.1328 170.004 83.9648 170.064 83.7422 170.064C83.5195 170.064 83.3516 170.004 83.2383 169.883C83.1289 169.762 83.0742 169.611 83.0742 169.432ZM83.0801 164.258C83.0801 164.07 83.1348 163.914 83.2441 163.789C83.3574 163.664 83.5254 163.602 83.748 163.602C83.9707 163.602 84.1387 163.664 84.252 163.789C84.3691 163.914 84.4277 164.07 84.4277 164.258C84.4277 164.438 84.3691 164.588 84.252 164.709C84.1387 164.83 83.9707 164.891 83.748 164.891C83.5254 164.891 83.3574 164.83 83.2441 164.709C83.1348 164.588 83.0801 164.438 83.0801 164.258ZM92.7773 160.889L93.3984 161.311C93.0352 161.807 92.8477 162.342 92.8359 162.916V163.713H91.7578V163.033C91.7578 162.635 91.8516 162.24 92.0391 161.85C92.2305 161.459 92.4766 161.139 92.7773 160.889ZM94.623 160.889L95.2441 161.311C94.8809 161.807 94.6934 162.342 94.6816 162.916V163.713H93.6035V163.033C93.6035 162.635 93.6973 162.24 93.8848 161.85C94.0762 161.459 94.3223 161.139 94.623 160.889ZM98.5488 166.033L97.5059 167.117V170H96.3809V161.469H97.5059V165.688L101.297 161.469H102.656L99.2988 165.236L102.92 170H101.572L98.5488 166.033ZM107.508 169.373C107.086 169.869 106.467 170.117 105.65 170.117C104.975 170.117 104.459 169.922 104.104 169.531C103.752 169.137 103.574 168.555 103.57 167.785V163.66H104.654V167.756C104.654 168.717 105.045 169.197 105.826 169.197C106.654 169.197 107.205 168.889 107.479 168.271V163.66H108.562V170H107.531L107.508 169.373ZM111.24 163.66L111.275 164.457C111.76 163.848 112.393 163.543 113.174 163.543C114.514 163.543 115.189 164.299 115.201 165.811V170H114.117V165.805C114.113 165.348 114.008 165.01 113.801 164.791C113.598 164.572 113.279 164.463 112.846 164.463C112.494 164.463 112.186 164.557 111.92 164.744C111.654 164.932 111.447 165.178 111.299 165.482V170H110.215V163.66H111.24ZM116.578 166.777C116.578 165.789 116.807 165.004 117.264 164.422C117.721 163.836 118.326 163.543 119.08 163.543C119.854 163.543 120.457 163.816 120.891 164.363L120.943 163.66H121.934V169.848C121.934 170.668 121.689 171.314 121.201 171.787C120.717 172.26 120.064 172.496 119.244 172.496C118.787 172.496 118.34 172.398 117.902 172.203C117.465 172.008 117.131 171.74 116.9 171.4L117.463 170.75C117.928 171.324 118.496 171.611 119.168 171.611C119.695 171.611 120.105 171.463 120.398 171.166C120.695 170.869 120.844 170.451 120.844 169.912V169.367C120.41 169.867 119.818 170.117 119.068 170.117C118.326 170.117 117.725 169.818 117.264 169.221C116.807 168.623 116.578 167.809 116.578 166.777ZM117.668 166.9C117.668 167.615 117.814 168.178 118.107 168.588C118.4 168.994 118.811 169.197 119.338 169.197C120.021 169.197 120.523 168.887 120.844 168.266V165.371C120.512 164.766 120.014 164.463 119.35 164.463C118.822 164.463 118.41 164.668 118.113 165.078C117.816 165.488 117.668 166.096 117.668 166.9ZM131.426 166.232H127.846V170H126.721V161.469H132.006V162.395H127.846V165.312H131.426V166.232ZM136.969 169.373C136.547 169.869 135.928 170.117 135.111 170.117C134.436 170.117 133.92 169.922 133.564 169.531C133.213 169.137 133.035 168.555 133.031 167.785V163.66H134.115V167.756C134.115 168.717 134.506 169.197 135.287 169.197C136.115 169.197 136.666 168.889 136.939 168.271V163.66H138.023V170H136.992L136.969 169.373ZM143.947 166.66V170H142.822V161.469H145.969C146.902 161.469 147.633 161.707 148.16 162.184C148.691 162.66 148.957 163.291 148.957 164.076C148.957 164.904 148.697 165.543 148.178 165.992C147.662 166.438 146.922 166.66 145.957 166.66H143.947ZM143.947 165.74H145.969C146.57 165.74 147.031 165.6 147.352 165.318C147.672 165.033 147.832 164.623 147.832 164.088C147.832 163.58 147.672 163.174 147.352 162.869C147.031 162.564 146.592 162.406 146.033 162.395H143.947V165.74ZM154.066 170C154.004 169.875 153.953 169.652 153.914 169.332C153.41 169.855 152.809 170.117 152.109 170.117C151.484 170.117 150.971 169.941 150.568 169.59C150.17 169.234 149.971 168.785 149.971 168.242C149.971 167.582 150.221 167.07 150.721 166.707C151.225 166.34 151.932 166.156 152.842 166.156H153.896V165.658C153.896 165.279 153.783 164.979 153.557 164.756C153.33 164.529 152.996 164.416 152.555 164.416C152.168 164.416 151.844 164.514 151.582 164.709C151.32 164.904 151.189 165.141 151.189 165.418H150.1C150.1 165.102 150.211 164.797 150.434 164.504C150.66 164.207 150.965 163.973 151.348 163.801C151.734 163.629 152.158 163.543 152.619 163.543C153.35 163.543 153.922 163.727 154.336 164.094C154.75 164.457 154.965 164.959 154.98 165.6V168.518C154.98 169.1 155.055 169.562 155.203 169.906V170H154.066ZM152.268 169.174C152.607 169.174 152.93 169.086 153.234 168.91C153.539 168.734 153.76 168.506 153.896 168.225V166.924H153.047C151.719 166.924 151.055 167.312 151.055 168.09C151.055 168.43 151.168 168.695 151.395 168.887C151.621 169.078 151.912 169.174 152.268 169.174ZM157.705 163.66L157.74 164.457C158.225 163.848 158.857 163.543 159.639 163.543C160.979 163.543 161.654 164.299 161.666 165.811V170H160.582V165.805C160.578 165.348 160.473 165.01 160.266 164.791C160.062 164.572 159.744 164.463 159.311 164.463C158.959 164.463 158.65 164.557 158.385 164.744C158.119 164.932 157.912 165.178 157.764 165.482V170H156.68V163.66H157.705ZM163.037 166.777C163.037 165.805 163.268 165.023 163.729 164.434C164.189 163.84 164.793 163.543 165.539 163.543C166.281 163.543 166.869 163.797 167.303 164.305V161H168.387V170H167.391L167.338 169.32C166.904 169.852 166.301 170.117 165.527 170.117C164.793 170.117 164.193 169.816 163.729 169.215C163.268 168.613 163.037 167.828 163.037 166.859V166.777ZM164.121 166.9C164.121 167.619 164.27 168.182 164.566 168.588C164.863 168.994 165.273 169.197 165.797 169.197C166.484 169.197 166.986 168.889 167.303 168.271V165.359C166.979 164.762 166.48 164.463 165.809 164.463C165.277 164.463 164.863 164.668 164.566 165.078C164.27 165.488 164.121 166.096 164.121 166.9ZM173.988 170C173.926 169.875 173.875 169.652 173.836 169.332C173.332 169.855 172.73 170.117 172.031 170.117C171.406 170.117 170.893 169.941 170.49 169.59C170.092 169.234 169.893 168.785 169.893 168.242C169.893 167.582 170.143 167.07 170.643 166.707C171.146 166.34 171.854 166.156 172.764 166.156H173.818V165.658C173.818 165.279 173.705 164.979 173.479 164.756C173.252 164.529 172.918 164.416 172.477 164.416C172.09 164.416 171.766 164.514 171.504 164.709C171.242 164.904 171.111 165.141 171.111 165.418H170.021C170.021 165.102 170.133 164.797 170.355 164.504C170.582 164.207 170.887 163.973 171.27 163.801C171.656 163.629 172.08 163.543 172.541 163.543C173.271 163.543 173.844 163.727 174.258 164.094C174.672 164.457 174.887 164.959 174.902 165.6V168.518C174.902 169.1 174.977 169.562 175.125 169.906V170H173.988ZM172.189 169.174C172.529 169.174 172.852 169.086 173.156 168.91C173.461 168.734 173.682 168.506 173.818 168.225V166.924H172.969C171.641 166.924 170.977 167.312 170.977 168.09C170.977 168.43 171.09 168.695 171.316 168.887C171.543 169.078 171.834 169.174 172.189 169.174ZM176.35 163.871L175.734 163.449C176.098 162.941 176.285 162.406 176.297 161.844V161H177.369V161.762C177.365 162.152 177.268 162.543 177.076 162.934C176.889 163.32 176.646 163.633 176.35 163.871ZM178.148 163.871L177.533 163.449C177.896 162.941 178.084 162.406 178.096 161.844V161H179.168V161.762C179.164 162.152 179.066 162.543 178.875 162.934C178.688 163.32 178.445 163.633 178.148 163.871ZM27.1113 199.471C27.9043 199.217 28.3145 198.57 28.3418 197.531V196.242C28.3418 195.34 28.6953 194.725 29.4023 194.396C28.6953 194.076 28.3418 193.461 28.3418 192.551V191.361C28.3418 190.26 27.9336 189.578 27.1172 189.316L27.3398 188.643C28.0312 188.838 28.5508 189.156 28.8984 189.598C29.2461 190.035 29.4219 190.615 29.4258 191.338V192.568C29.4258 193.502 29.8398 193.969 30.668 193.969V194.818C29.8398 194.818 29.4258 195.293 29.4258 196.242V197.426C29.4258 198.16 29.248 198.748 28.8926 199.189C28.541 199.631 28.0234 199.949 27.3398 200.145L27.1113 199.471Z" fill="black"/>
<g filter="url(#filter0_d)">
<path d="M223 214C222.448 214 222 214.448 222 215L222 224C222 224.552 222.448 225 223 225C223.552 225 224 224.552 224 224L224 216L232 216C232.552 216 233 215.552 233 215C233 214.448 232.552 214 232 214L223 214ZM266.562 257.147L223.707 214.293L222.293 215.707L265.147 258.562L266.562 257.147Z" fill="#3E57AF"/>
</g>
<g filter="url(#filter1_d)">
<rect x="6" y="66" width="211" height="143" stroke="#3E57AF" stroke-width="3" stroke-linejoin="round"/>
</g>
<path d="M270.156 272V260.625H273.516C274.521 260.625 275.411 260.849 276.188 261.297C276.969 261.745 277.573 262.38 278 263.203C278.427 264.026 278.641 264.969 278.641 266.031V266.602C278.641 267.68 278.424 268.628 277.992 269.445C277.565 270.263 276.953 270.893 276.156 271.336C275.365 271.779 274.456 272 273.43 272H270.156ZM272.133 262.219V270.422H273.422C274.458 270.422 275.253 270.099 275.805 269.453C276.362 268.802 276.646 267.87 276.656 266.656V266.023C276.656 264.789 276.388 263.846 275.852 263.195C275.315 262.544 274.536 262.219 273.516 262.219H272.133ZM280.07 267.695C280.07 266.867 280.234 266.122 280.562 265.461C280.891 264.794 281.352 264.284 281.945 263.93C282.539 263.57 283.221 263.391 283.992 263.391C285.133 263.391 286.057 263.758 286.766 264.492C287.479 265.227 287.865 266.201 287.922 267.414L287.93 267.859C287.93 268.693 287.768 269.438 287.445 270.094C287.128 270.75 286.669 271.258 286.07 271.617C285.477 271.977 284.789 272.156 284.008 272.156C282.815 272.156 281.859 271.76 281.141 270.969C280.427 270.172 280.07 269.112 280.07 267.789V267.695ZM281.969 267.859C281.969 268.729 282.148 269.411 282.508 269.906C282.867 270.396 283.367 270.641 284.008 270.641C284.648 270.641 285.146 270.391 285.5 269.891C285.859 269.391 286.039 268.659 286.039 267.695C286.039 266.841 285.854 266.164 285.484 265.664C285.12 265.164 284.622 264.914 283.992 264.914C283.372 264.914 282.88 265.161 282.516 265.656C282.151 266.146 281.969 266.88 281.969 267.859ZM293.008 270.641C293.482 270.641 293.875 270.503 294.188 270.227C294.5 269.951 294.667 269.609 294.688 269.203H296.477C296.456 269.729 296.292 270.221 295.984 270.68C295.677 271.133 295.26 271.492 294.734 271.758C294.208 272.023 293.641 272.156 293.031 272.156C291.849 272.156 290.911 271.773 290.219 271.008C289.526 270.242 289.18 269.185 289.18 267.836V267.641C289.18 266.354 289.523 265.326 290.211 264.555C290.898 263.779 291.836 263.391 293.023 263.391C294.029 263.391 294.846 263.685 295.477 264.273C296.112 264.857 296.445 265.625 296.477 266.578H294.688C294.667 266.094 294.5 265.695 294.188 265.383C293.88 265.07 293.487 264.914 293.008 264.914C292.393 264.914 291.919 265.138 291.586 265.586C291.253 266.029 291.083 266.703 291.078 267.609V267.914C291.078 268.831 291.242 269.516 291.57 269.969C291.904 270.417 292.383 270.641 293.008 270.641ZM303.031 271.172C302.474 271.828 301.682 272.156 300.656 272.156C299.74 272.156 299.044 271.888 298.57 271.352C298.102 270.815 297.867 270.039 297.867 269.023V263.547H299.766V269C299.766 270.073 300.211 270.609 301.102 270.609C302.023 270.609 302.646 270.279 302.969 269.617V263.547H304.867V272H303.078L303.031 271.172ZM308.586 263.547L308.641 264.43C309.234 263.737 310.047 263.391 311.078 263.391C312.208 263.391 312.982 263.823 313.398 264.688C314.013 263.823 314.878 263.391 315.992 263.391C316.924 263.391 317.617 263.648 318.07 264.164C318.529 264.68 318.763 265.44 318.773 266.445V272H316.875V266.5C316.875 265.964 316.758 265.57 316.523 265.32C316.289 265.07 315.901 264.945 315.359 264.945C314.927 264.945 314.573 265.062 314.297 265.297C314.026 265.526 313.836 265.828 313.727 266.203L313.734 272H311.836V266.438C311.81 265.443 311.302 264.945 310.312 264.945C309.552 264.945 309.013 265.255 308.695 265.875V272H306.797V263.547H308.586ZM324.445 272.156C323.242 272.156 322.266 271.779 321.516 271.023C320.771 270.263 320.398 269.253 320.398 267.992V267.758C320.398 266.914 320.56 266.161 320.883 265.5C321.211 264.833 321.669 264.315 322.258 263.945C322.846 263.576 323.503 263.391 324.227 263.391C325.378 263.391 326.266 263.758 326.891 264.492C327.521 265.227 327.836 266.266 327.836 267.609V268.375H322.312C322.37 269.073 322.602 269.625 323.008 270.031C323.419 270.438 323.935 270.641 324.555 270.641C325.424 270.641 326.133 270.289 326.68 269.586L327.703 270.562C327.365 271.068 326.911 271.461 326.344 271.742C325.781 272.018 325.148 272.156 324.445 272.156ZM324.219 264.914C323.698 264.914 323.276 265.096 322.953 265.461C322.635 265.826 322.432 266.333 322.344 266.984H325.961V266.844C325.919 266.208 325.75 265.729 325.453 265.406C325.156 265.078 324.745 264.914 324.219 264.914ZM331.078 263.547L331.133 264.523C331.758 263.768 332.578 263.391 333.594 263.391C335.354 263.391 336.25 264.398 336.281 266.414V272H334.383V266.523C334.383 265.987 334.266 265.591 334.031 265.336C333.802 265.076 333.424 264.945 332.898 264.945C332.133 264.945 331.562 265.292 331.188 265.984V272H329.289V263.547H331.078ZM340.602 261.492V263.547H342.094V264.953H340.602V269.672C340.602 269.995 340.664 270.229 340.789 270.375C340.919 270.516 341.148 270.586 341.477 270.586C341.695 270.586 341.917 270.56 342.141 270.508V271.977C341.708 272.096 341.292 272.156 340.891 272.156C339.432 272.156 338.703 271.352 338.703 269.742V264.953H337.312V263.547H338.703V261.492H340.602Z" fill="#3E57AF"/>
<g filter="url(#filter2_d)">
<rect x="33" y="86" width="127" height="44" stroke="#4CD9F8" stroke-width="3" stroke-linejoin="round"/>
</g>
<g filter="url(#filter3_d)">
<path d="M112.448 96.7071C112.839 97.0977 113.472 97.0977 113.862 96.7071L120.226 90.3432C120.617 89.9527 120.617 89.3195 120.226 88.929C119.836 88.5385 119.202 88.5384 118.812 88.929L113.155 94.5858L107.498 88.929C107.108 88.5384 106.475 88.5384 106.084 88.929C105.694 89.3195 105.694 89.9527 106.084 90.3432L112.448 96.7071ZM112.155 23.5L112.155 96L114.155 96L114.155 23.5L112.155 23.5Z" fill="#F8B34C"/>
</g>
<g filter="url(#filter4_d)">
<path d="M55.448 96.7069C55.8385 97.0974 56.4717 97.0974 56.8622 96.7069L63.2262 90.3429C63.6167 89.9524 63.6167 89.3192 63.2262 88.9287C62.8356 88.5382 62.2025 88.5382 61.812 88.9287L56.1551 94.5855L50.4982 88.9287C50.1077 88.5382 49.4746 88.5382 49.084 88.9287C48.6935 89.3192 48.6935 89.9524 49.084 90.3429L55.448 96.7069ZM55.1551 51L55.1551 95.9998L57.1551 95.9998L57.1551 51L55.1551 51Z" fill="#EA2465"/>
</g>
<g filter="url(#filter5_d)">
<rect x="42" y="100" width="29" height="19" stroke="#EA2465" stroke-width="3" stroke-linejoin="round"/>
</g>
<path d="M16.1328 38.7734V43H14.1562V31.625H18.5078C19.7786 31.625 20.7865 31.9557 21.5312 32.6172C22.2812 33.2786 22.6562 34.1536 22.6562 35.2422C22.6562 36.3568 22.2891 37.224 21.5547 37.8438C20.8255 38.4635 19.8021 38.7734 18.4844 38.7734H16.1328ZM16.1328 37.1875H18.5078C19.2109 37.1875 19.7474 37.0234 20.1172 36.6953C20.487 36.362 20.6719 35.8828 20.6719 35.2578C20.6719 34.6432 20.4844 34.1536 20.1094 33.7891C19.7344 33.4193 19.2188 33.2292 18.5625 33.2188H16.1328V37.1875ZM28.6328 36.2812C28.3828 36.2396 28.125 36.2188 27.8594 36.2188C26.9896 36.2188 26.4036 36.5521 26.1016 37.2188V43H24.2031V34.5469H26.0156L26.0625 35.4922C26.5208 34.7578 27.1562 34.3906 27.9688 34.3906C28.2396 34.3906 28.4635 34.4271 28.6406 34.5L28.6328 36.2812ZM31.8516 43H29.9531V34.5469H31.8516V43ZM29.8359 32.3516C29.8359 32.0599 29.9271 31.8177 30.1094 31.625C30.2969 31.4323 30.5625 31.3359 30.9062 31.3359C31.25 31.3359 31.5156 31.4323 31.7031 31.625C31.8906 31.8177 31.9844 32.0599 31.9844 32.3516C31.9844 32.638 31.8906 32.8776 31.7031 33.0703C31.5156 33.2578 31.25 33.3516 30.9062 33.3516C30.5625 33.3516 30.2969 33.2578 30.1094 33.0703C29.9271 32.8776 29.8359 32.638 29.8359 32.3516ZM35.7109 34.5469L35.7656 35.4297C36.3594 34.737 37.1719 34.3906 38.2031 34.3906C39.3333 34.3906 40.1068 34.8229 40.5234 35.6875C41.138 34.8229 42.0026 34.3906 43.1172 34.3906C44.0495 34.3906 44.7422 34.6484 45.1953 35.1641C45.6536 35.6797 45.888 36.4401 45.8984 37.4453V43H44V37.5C44 36.9635 43.8828 36.5703 43.6484 36.3203C43.4141 36.0703 43.026 35.9453 42.4844 35.9453C42.0521 35.9453 41.6979 36.0625 41.4219 36.2969C41.151 36.526 40.9609 36.8281 40.8516 37.2031L40.8594 43H38.9609V37.4375C38.9349 36.4427 38.4271 35.9453 37.4375 35.9453C36.6771 35.9453 36.138 36.2552 35.8203 36.875V43H33.9219V34.5469H35.7109ZM52.8984 43C52.8151 42.8385 52.7422 42.5755 52.6797 42.2109C52.0755 42.8411 51.3359 43.1562 50.4609 43.1562C49.612 43.1562 48.9193 42.9141 48.3828 42.4297C47.8464 41.9453 47.5781 41.3464 47.5781 40.6328C47.5781 39.7318 47.9115 39.0417 48.5781 38.5625C49.25 38.0781 50.2083 37.8359 51.4531 37.8359H52.6172V37.2812C52.6172 36.8438 52.4948 36.4948 52.25 36.2344C52.0052 35.9688 51.6328 35.8359 51.1328 35.8359C50.7005 35.8359 50.3464 35.9453 50.0703 36.1641C49.7943 36.3776 49.6562 36.651 49.6562 36.9844H47.7578C47.7578 36.5208 47.9115 36.0885 48.2188 35.6875C48.526 35.2812 48.9427 34.9635 49.4688 34.7344C50 34.5052 50.5911 34.3906 51.2422 34.3906C52.2318 34.3906 53.0208 34.6406 53.6094 35.1406C54.1979 35.6354 54.5 36.3333 54.5156 37.2344V41.0469C54.5156 41.8073 54.6224 42.4141 54.8359 42.8672V43H52.8984ZM50.8125 41.6328C51.1875 41.6328 51.5391 41.5417 51.8672 41.3594C52.2005 41.1771 52.4505 40.9323 52.6172 40.625V39.0312H51.5938C50.8906 39.0312 50.362 39.1536 50.0078 39.3984C49.6536 39.6432 49.4766 39.9896 49.4766 40.4375C49.4766 40.8021 49.5964 41.0938 49.8359 41.3125C50.0807 41.526 50.4062 41.6328 50.8125 41.6328ZM60.9297 36.2812C60.6797 36.2396 60.4219 36.2188 60.1562 36.2188C59.2865 36.2188 58.7005 36.5521 58.3984 37.2188V43H56.5V34.5469H58.3125L58.3594 35.4922C58.8177 34.7578 59.4531 34.3906 60.2656 34.3906C60.5365 34.3906 60.7604 34.4271 60.9375 34.5L60.9297 36.2812ZM65.2266 40.2812L66.9453 34.5469H68.9688L65.6094 44.2812C65.0938 45.7031 64.2188 46.4141 62.9844 46.4141C62.7083 46.4141 62.4036 46.3672 62.0703 46.2734V44.8047L62.4297 44.8281C62.9089 44.8281 63.2682 44.7396 63.5078 44.5625C63.7526 44.3906 63.9453 44.099 64.0859 43.6875L64.3594 42.9609L61.3906 34.5469H63.4375L65.2266 40.2812ZM77.5 38.0859L76.2109 39.4531V43H74.2344V31.625H76.2109V36.9609L77.3047 35.6094L80.6328 31.625H83.0234L78.7969 36.6641L83.2656 43H80.9219L77.5 38.0859ZM87.6641 43.1562C86.4609 43.1562 85.4844 42.7786 84.7344 42.0234C83.9896 41.263 83.6172 40.2526 83.6172 38.9922V38.7578C83.6172 37.9141 83.7786 37.1615 84.1016 36.5C84.4297 35.8333 84.888 35.3151 85.4766 34.9453C86.0651 34.5755 86.7214 34.3906 87.4453 34.3906C88.5964 34.3906 89.4844 34.7578 90.1094 35.4922C90.7396 36.2266 91.0547 37.2656 91.0547 38.6094V39.375H85.5312C85.5885 40.0729 85.8203 40.625 86.2266 41.0312C86.638 41.4375 87.1536 41.6406 87.7734 41.6406C88.6432 41.6406 89.3516 41.2891 89.8984 40.5859L90.9219 41.5625C90.5833 42.0677 90.1302 42.4609 89.5625 42.7422C89 43.0182 88.3672 43.1562 87.6641 43.1562ZM87.4375 35.9141C86.9167 35.9141 86.4948 36.0964 86.1719 36.4609C85.8542 36.8255 85.651 37.3333 85.5625 37.9844H89.1797V37.8438C89.138 37.2083 88.9688 36.7292 88.6719 36.4062C88.375 36.0781 87.9635 35.9141 87.4375 35.9141ZM95.3828 40.2812L97.1016 34.5469H99.125L95.7656 44.2812C95.25 45.7031 94.375 46.4141 93.1406 46.4141C92.8646 46.4141 92.5599 46.3672 92.2266 46.2734V44.8047L92.5859 44.8281C93.0651 44.8281 93.4245 44.7396 93.6641 44.5625C93.9089 44.3906 94.1016 44.099 94.2422 43.6875L94.5156 42.9609L91.5469 34.5469H93.5938L95.3828 40.2812Z" fill="#EA2465"/>
<path d="M277.133 110.773V115H275.156V103.625H279.508C280.779 103.625 281.786 103.956 282.531 104.617C283.281 105.279 283.656 106.154 283.656 107.242C283.656 108.357 283.289 109.224 282.555 109.844C281.826 110.464 280.802 110.773 279.484 110.773H277.133ZM277.133 109.188H279.508C280.211 109.188 280.747 109.023 281.117 108.695C281.487 108.362 281.672 107.883 281.672 107.258C281.672 106.643 281.484 106.154 281.109 105.789C280.734 105.419 280.219 105.229 279.562 105.219H277.133V109.188ZM289.633 108.281C289.383 108.24 289.125 108.219 288.859 108.219C287.99 108.219 287.404 108.552 287.102 109.219V115H285.203V106.547H287.016L287.062 107.492C287.521 106.758 288.156 106.391 288.969 106.391C289.24 106.391 289.464 106.427 289.641 106.5L289.633 108.281ZM292.852 115H290.953V106.547H292.852V115ZM290.836 104.352C290.836 104.06 290.927 103.818 291.109 103.625C291.297 103.432 291.562 103.336 291.906 103.336C292.25 103.336 292.516 103.432 292.703 103.625C292.891 103.818 292.984 104.06 292.984 104.352C292.984 104.638 292.891 104.878 292.703 105.07C292.516 105.258 292.25 105.352 291.906 105.352C291.562 105.352 291.297 105.258 291.109 105.07C290.927 104.878 290.836 104.638 290.836 104.352ZM296.711 106.547L296.766 107.43C297.359 106.737 298.172 106.391 299.203 106.391C300.333 106.391 301.107 106.823 301.523 107.688C302.138 106.823 303.003 106.391 304.117 106.391C305.049 106.391 305.742 106.648 306.195 107.164C306.654 107.68 306.888 108.44 306.898 109.445V115H305V109.5C305 108.964 304.883 108.57 304.648 108.32C304.414 108.07 304.026 107.945 303.484 107.945C303.052 107.945 302.698 108.062 302.422 108.297C302.151 108.526 301.961 108.828 301.852 109.203L301.859 115H299.961V109.438C299.935 108.443 299.427 107.945 298.438 107.945C297.677 107.945 297.138 108.255 296.82 108.875V115H294.922V106.547H296.711ZM313.898 115C313.815 114.839 313.742 114.576 313.68 114.211C313.076 114.841 312.336 115.156 311.461 115.156C310.612 115.156 309.919 114.914 309.383 114.43C308.846 113.945 308.578 113.346 308.578 112.633C308.578 111.732 308.911 111.042 309.578 110.562C310.25 110.078 311.208 109.836 312.453 109.836H313.617V109.281C313.617 108.844 313.495 108.495 313.25 108.234C313.005 107.969 312.633 107.836 312.133 107.836C311.701 107.836 311.346 107.945 311.07 108.164C310.794 108.378 310.656 108.651 310.656 108.984H308.758C308.758 108.521 308.911 108.089 309.219 107.688C309.526 107.281 309.943 106.964 310.469 106.734C311 106.505 311.591 106.391 312.242 106.391C313.232 106.391 314.021 106.641 314.609 107.141C315.198 107.635 315.5 108.333 315.516 109.234V113.047C315.516 113.807 315.622 114.414 315.836 114.867V115H313.898ZM311.812 113.633C312.188 113.633 312.539 113.542 312.867 113.359C313.201 113.177 313.451 112.932 313.617 112.625V111.031H312.594C311.891 111.031 311.362 111.154 311.008 111.398C310.654 111.643 310.477 111.99 310.477 112.438C310.477 112.802 310.596 113.094 310.836 113.312C311.081 113.526 311.406 113.633 311.812 113.633ZM321.93 108.281C321.68 108.24 321.422 108.219 321.156 108.219C320.286 108.219 319.701 108.552 319.398 109.219V115H317.5V106.547H319.312L319.359 107.492C319.818 106.758 320.453 106.391 321.266 106.391C321.536 106.391 321.76 106.427 321.938 106.5L321.93 108.281ZM326.227 112.281L327.945 106.547H329.969L326.609 116.281C326.094 117.703 325.219 118.414 323.984 118.414C323.708 118.414 323.404 118.367 323.07 118.273V116.805L323.43 116.828C323.909 116.828 324.268 116.74 324.508 116.562C324.753 116.391 324.945 116.099 325.086 115.688L325.359 114.961L322.391 106.547H324.438L326.227 112.281ZM341.789 110.18H337.211V115H335.234V103.625H342.461V105.219H337.211V108.602H341.789V110.18ZM345.867 115H343.969V106.547H345.867V115ZM343.852 104.352C343.852 104.06 343.943 103.818 344.125 103.625C344.312 103.432 344.578 103.336 344.922 103.336C345.266 103.336 345.531 103.432 345.719 103.625C345.906 103.818 346 104.06 346 104.352C346 104.638 345.906 104.878 345.719 105.07C345.531 105.258 345.266 105.352 344.922 105.352C344.578 105.352 344.312 105.258 344.125 105.07C343.943 104.878 343.852 104.638 343.852 104.352ZM351.664 115.156C350.461 115.156 349.484 114.779 348.734 114.023C347.99 113.263 347.617 112.253 347.617 110.992V110.758C347.617 109.914 347.779 109.161 348.102 108.5C348.43 107.833 348.888 107.315 349.477 106.945C350.065 106.576 350.721 106.391 351.445 106.391C352.596 106.391 353.484 106.758 354.109 107.492C354.74 108.227 355.055 109.266 355.055 110.609V111.375H349.531C349.589 112.073 349.82 112.625 350.227 113.031C350.638 113.438 351.154 113.641 351.773 113.641C352.643 113.641 353.352 113.289 353.898 112.586L354.922 113.562C354.583 114.068 354.13 114.461 353.562 114.742C353 115.018 352.367 115.156 351.664 115.156ZM351.438 107.914C350.917 107.914 350.495 108.096 350.172 108.461C349.854 108.826 349.651 109.333 349.562 109.984H353.18V109.844C353.138 109.208 352.969 108.729 352.672 108.406C352.375 108.078 351.964 107.914 351.438 107.914ZM358.555 115H356.656V103H358.555V115ZM360.273 110.711C360.273 109.409 360.576 108.365 361.18 107.578C361.784 106.786 362.594 106.391 363.609 106.391C364.505 106.391 365.229 106.703 365.781 107.328V103H367.68V115H365.961L365.867 114.125C365.299 114.812 364.542 115.156 363.594 115.156C362.604 115.156 361.802 114.758 361.188 113.961C360.578 113.164 360.273 112.081 360.273 110.711ZM362.172 110.875C362.172 111.734 362.336 112.406 362.664 112.891C362.997 113.37 363.469 113.609 364.078 113.609C364.854 113.609 365.422 113.263 365.781 112.57V108.961C365.432 108.284 364.87 107.945 364.094 107.945C363.479 107.945 363.005 108.19 362.672 108.68C362.339 109.164 362.172 109.896 362.172 110.875Z" fill="#4CD9F8"/>
<g filter="url(#filter6_d)">
<rect x="82" y="100" width="53" height="19" stroke="#F8B34C" stroke-width="3" stroke-linejoin="round"/>
</g>
<g filter="url(#filter7_d)">
<path d="M167.293 108.293C166.902 108.683 166.902 109.317 167.293 109.707L173.657 116.071C174.047 116.462 174.681 116.462 175.071 116.071C175.462 115.681 175.462 115.047 175.071 114.657L169.414 109L175.071 103.343C175.462 102.953 175.462 102.319 175.071 101.929C174.681 101.538 174.047 101.538 173.657 101.929L167.293 108.293ZM264 108L168 108L168 110L264 110L264 108Z" fill="#4CD9F8"/>
</g>
<path d="M44.1562 15V3.625H47.5156C48.5208 3.625 49.4115 3.84896 50.1875 4.29688C50.9688 4.74479 51.5729 5.38021 52 6.20312C52.4271 7.02604 52.6406 7.96875 52.6406 9.03125V9.60156C52.6406 10.6797 52.4245 11.6276 51.9922 12.4453C51.5651 13.263 50.9531 13.8932 50.1562 14.3359C49.3646 14.7786 48.4557 15 47.4297 15H44.1562ZM46.1328 5.21875V13.4219H47.4219C48.4583 13.4219 49.2526 13.099 49.8047 12.4531C50.362 11.8021 50.6458 10.8698 50.6562 9.65625V9.02344C50.6562 7.78906 50.388 6.84635 49.8516 6.19531C49.3151 5.54427 48.5365 5.21875 47.5156 5.21875H46.1328ZM54.0703 10.6953C54.0703 9.86719 54.2344 9.1224 54.5625 8.46094C54.8906 7.79427 55.3516 7.28385 55.9453 6.92969C56.5391 6.57031 57.2214 6.39062 57.9922 6.39062C59.1328 6.39062 60.0573 6.75781 60.7656 7.49219C61.4792 8.22656 61.8646 9.20052 61.9219 10.4141L61.9297 10.8594C61.9297 11.6927 61.7682 12.4375 61.4453 13.0938C61.1276 13.75 60.6693 14.2578 60.0703 14.6172C59.4766 14.9766 58.7891 15.1562 58.0078 15.1562C56.8151 15.1562 55.8594 14.7604 55.1406 13.9688C54.4271 13.1719 54.0703 12.112 54.0703 10.7891V10.6953ZM55.9688 10.8594C55.9688 11.7292 56.1484 12.4115 56.5078 12.9062C56.8672 13.3958 57.3672 13.6406 58.0078 13.6406C58.6484 13.6406 59.1458 13.3906 59.5 12.8906C59.8594 12.3906 60.0391 11.6589 60.0391 10.6953C60.0391 9.84115 59.8542 9.16406 59.4844 8.66406C59.1198 8.16406 58.6224 7.91406 57.9922 7.91406C57.3724 7.91406 56.8802 8.16146 56.5156 8.65625C56.151 9.14583 55.9688 9.88021 55.9688 10.8594ZM67.0078 13.6406C67.4818 13.6406 67.875 13.5026 68.1875 13.2266C68.5 12.9505 68.6667 12.6094 68.6875 12.2031H70.4766C70.4557 12.7292 70.2917 13.2214 69.9844 13.6797C69.6771 14.1328 69.2604 14.4922 68.7344 14.7578C68.2083 15.0234 67.6406 15.1562 67.0312 15.1562C65.849 15.1562 64.9115 14.7734 64.2188 14.0078C63.526 13.2422 63.1797 12.1849 63.1797 10.8359V10.6406C63.1797 9.35417 63.5234 8.32552 64.2109 7.55469C64.8984 6.77865 65.8359 6.39062 67.0234 6.39062C68.0286 6.39062 68.8464 6.6849 69.4766 7.27344C70.112 7.85677 70.4453 8.625 70.4766 9.57812H68.6875C68.6667 9.09375 68.5 8.69531 68.1875 8.38281C67.8802 8.07031 67.487 7.91406 67.0078 7.91406C66.3932 7.91406 65.9193 8.13802 65.5859 8.58594C65.2526 9.02865 65.0833 9.70312 65.0781 10.6094V10.9141C65.0781 11.8307 65.2422 12.5156 65.5703 12.9688C65.9036 13.4167 66.3828 13.6406 67.0078 13.6406ZM77.0312 14.1719C76.474 14.8281 75.6823 15.1562 74.6562 15.1562C73.7396 15.1562 73.0443 14.888 72.5703 14.3516C72.1016 13.8151 71.8672 13.0391 71.8672 12.0234V6.54688H73.7656V12C73.7656 13.0729 74.2109 13.6094 75.1016 13.6094C76.0234 13.6094 76.6458 13.2786 76.9688 12.6172V6.54688H78.8672V15H77.0781L77.0312 14.1719ZM82.5859 6.54688L82.6406 7.42969C83.2344 6.73698 84.0469 6.39062 85.0781 6.39062C86.2083 6.39062 86.9818 6.82292 87.3984 7.6875C88.013 6.82292 88.8776 6.39062 89.9922 6.39062C90.9245 6.39062 91.6172 6.64844 92.0703 7.16406C92.5286 7.67969 92.763 8.4401 92.7734 9.44531V15H90.875V9.5C90.875 8.96354 90.7578 8.57031 90.5234 8.32031C90.2891 8.07031 89.901 7.94531 89.3594 7.94531C88.9271 7.94531 88.5729 8.0625 88.2969 8.29688C88.026 8.52604 87.8359 8.82812 87.7266 9.20312L87.7344 15H85.8359V9.4375C85.8099 8.44271 85.3021 7.94531 84.3125 7.94531C83.5521 7.94531 83.013 8.25521 82.6953 8.875V15H80.7969V6.54688H82.5859ZM98.4453 15.1562C97.2422 15.1562 96.2656 14.7786 95.5156 14.0234C94.7708 13.263 94.3984 12.2526 94.3984 10.9922V10.7578C94.3984 9.91406 94.5599 9.16146 94.8828 8.5C95.2109 7.83333 95.6693 7.3151 96.2578 6.94531C96.8464 6.57552 97.5026 6.39062 98.2266 6.39062C99.3776 6.39062 100.266 6.75781 100.891 7.49219C101.521 8.22656 101.836 9.26562 101.836 10.6094V11.375H96.3125C96.3698 12.0729 96.6016 12.625 97.0078 13.0312C97.4193 13.4375 97.9349 13.6406 98.5547 13.6406C99.4245 13.6406 100.133 13.2891 100.68 12.5859L101.703 13.5625C101.365 14.0677 100.911 14.4609 100.344 14.7422C99.7812 15.0182 99.1484 15.1562 98.4453 15.1562ZM98.2188 7.91406C97.6979 7.91406 97.276 8.09635 96.9531 8.46094C96.6354 8.82552 96.4323 9.33333 96.3438 9.98438H99.9609V9.84375C99.9193 9.20833 99.75 8.72917 99.4531 8.40625C99.1562 8.07812 98.7448 7.91406 98.2188 7.91406ZM105.078 6.54688L105.133 7.52344C105.758 6.76823 106.578 6.39062 107.594 6.39062C109.354 6.39062 110.25 7.39844 110.281 9.41406V15H108.383V9.52344C108.383 8.98698 108.266 8.59115 108.031 8.33594C107.802 8.07552 107.424 7.94531 106.898 7.94531C106.133 7.94531 105.562 8.29167 105.188 8.98438V15H103.289V6.54688H105.078ZM114.602 4.49219V6.54688H116.094V7.95312H114.602V12.6719C114.602 12.9948 114.664 13.2292 114.789 13.375C114.919 13.5156 115.148 13.5859 115.477 13.5859C115.695 13.5859 115.917 13.5599 116.141 13.5078V14.9766C115.708 15.0964 115.292 15.1562 114.891 15.1562C113.432 15.1562 112.703 14.3516 112.703 12.7422V7.95312H111.312V6.54688H112.703V4.49219H114.602ZM123.805 15H121.836V3.625H123.805V15ZM125.695 10.7109C125.695 9.40885 125.997 8.36458 126.602 7.57812C127.206 6.78646 128.016 6.39062 129.031 6.39062C129.927 6.39062 130.651 6.70312 131.203 7.32812V3H133.102V15H131.383L131.289 14.125C130.721 14.8125 129.964 15.1562 129.016 15.1562C128.026 15.1562 127.224 14.7578 126.609 13.9609C126 13.1641 125.695 12.0807 125.695 10.7109ZM127.594 10.875C127.594 11.7344 127.758 12.4062 128.086 12.8906C128.419 13.3698 128.891 13.6094 129.5 13.6094C130.276 13.6094 130.844 13.263 131.203 12.5703V8.96094C130.854 8.28385 130.292 7.94531 129.516 7.94531C128.901 7.94531 128.427 8.1901 128.094 8.67969C127.76 9.16406 127.594 9.89583 127.594 10.875ZM138.805 15.1562C137.602 15.1562 136.625 14.7786 135.875 14.0234C135.13 13.263 134.758 12.2526 134.758 10.9922V10.7578C134.758 9.91406 134.919 9.16146 135.242 8.5C135.57 7.83333 136.029 7.3151 136.617 6.94531C137.206 6.57552 137.862 6.39062 138.586 6.39062C139.737 6.39062 140.625 6.75781 141.25 7.49219C141.88 8.22656 142.195 9.26562 142.195 10.6094V11.375H136.672C136.729 12.0729 136.961 12.625 137.367 13.0312C137.779 13.4375 138.294 13.6406 138.914 13.6406C139.784 13.6406 140.492 13.2891 141.039 12.5859L142.062 13.5625C141.724 14.0677 141.271 14.4609 140.703 14.7422C140.141 15.0182 139.508 15.1562 138.805 15.1562ZM138.578 7.91406C138.057 7.91406 137.635 8.09635 137.312 8.46094C136.995 8.82552 136.792 9.33333 136.703 9.98438H140.32V9.84375C140.279 9.20833 140.109 8.72917 139.812 8.40625C139.516 8.07812 139.104 7.91406 138.578 7.91406ZM145.438 6.54688L145.492 7.52344C146.117 6.76823 146.938 6.39062 147.953 6.39062C149.714 6.39062 150.609 7.39844 150.641 9.41406V15H148.742V9.52344C148.742 8.98698 148.625 8.59115 148.391 8.33594C148.161 8.07552 147.784 7.94531 147.258 7.94531C146.492 7.94531 145.922 8.29167 145.547 8.98438V15H143.648V6.54688H145.438ZM154.961 4.49219V6.54688H156.453V7.95312H154.961V12.6719C154.961 12.9948 155.023 13.2292 155.148 13.375C155.279 13.5156 155.508 13.5859 155.836 13.5859C156.055 13.5859 156.276 13.5599 156.5 13.5078V14.9766C156.068 15.0964 155.651 15.1562 155.25 15.1562C153.792 15.1562 153.062 14.3516 153.062 12.7422V7.95312H151.672V6.54688H153.062V4.49219H154.961ZM159.93 15H158.031V6.54688H159.93V15ZM157.914 4.35156C157.914 4.0599 158.005 3.81771 158.188 3.625C158.375 3.43229 158.641 3.33594 158.984 3.33594C159.328 3.33594 159.594 3.43229 159.781 3.625C159.969 3.81771 160.062 4.0599 160.062 4.35156C160.062 4.63802 159.969 4.8776 159.781 5.07031C159.594 5.25781 159.328 5.35156 158.984 5.35156C158.641 5.35156 158.375 5.25781 158.188 5.07031C158.005 4.8776 157.914 4.63802 157.914 4.35156ZM162.508 15V7.95312H161.219V6.54688H162.508V5.96875C162.513 5.30729 162.654 4.73958 162.93 4.26562C163.206 3.79167 163.596 3.4349 164.102 3.19531C164.607 2.95573 165.214 2.83594 165.922 2.83594C166.339 2.83594 166.737 2.88021 167.117 2.96875C167.503 3.05729 167.901 3.16927 168.312 3.30469L168.023 4.875C167.305 4.625 166.648 4.5 166.055 4.5C165.477 4.5 165.057 4.6276 164.797 4.88281C164.536 5.13281 164.406 5.51042 164.406 6.01562V6.54688H166.07V7.95312H164.406V15H162.508ZM169.211 15H167.312V6.54688H169.211V15ZM175.039 15.1562C173.836 15.1562 172.859 14.7786 172.109 14.0234C171.365 13.263 170.992 12.2526 170.992 10.9922V10.7578C170.992 9.91406 171.154 9.16146 171.477 8.5C171.805 7.83333 172.263 7.3151 172.852 6.94531C173.44 6.57552 174.096 6.39062 174.82 6.39062C175.971 6.39062 176.859 6.75781 177.484 7.49219C178.115 8.22656 178.43 9.26562 178.43 10.6094V11.375H172.906C172.964 12.0729 173.195 12.625 173.602 13.0312C174.013 13.4375 174.529 13.6406 175.148 13.6406C176.018 13.6406 176.727 13.2891 177.273 12.5859L178.297 13.5625C177.958 14.0677 177.505 14.4609 176.938 14.7422C176.375 15.0182 175.742 15.1562 175.039 15.1562ZM174.812 7.91406C174.292 7.91406 173.87 8.09635 173.547 8.46094C173.229 8.82552 173.026 9.33333 172.938 9.98438H176.555V9.84375C176.513 9.20833 176.344 8.72917 176.047 8.40625C175.75 8.07812 175.339 7.91406 174.812 7.91406ZM184.336 8.28125C184.086 8.23958 183.828 8.21875 183.562 8.21875C182.693 8.21875 182.107 8.55208 181.805 9.21875V15H179.906V6.54688H181.719L181.766 7.49219C182.224 6.75781 182.859 6.39062 183.672 6.39062C183.943 6.39062 184.167 6.42708 184.344 6.5L184.336 8.28125Z" fill="#F8B34C"/>
<path d="M281.102 169.07C281.102 168.57 280.924 168.185 280.57 167.914C280.221 167.643 279.589 167.37 278.672 167.094C277.755 166.818 277.026 166.51 276.484 166.172C275.448 165.521 274.93 164.672 274.93 163.625C274.93 162.708 275.302 161.953 276.047 161.359C276.797 160.766 277.768 160.469 278.961 160.469C279.753 160.469 280.458 160.615 281.078 160.906C281.698 161.198 282.185 161.615 282.539 162.156C282.893 162.693 283.07 163.289 283.07 163.945H281.102C281.102 163.352 280.914 162.888 280.539 162.555C280.169 162.216 279.638 162.047 278.945 162.047C278.299 162.047 277.797 162.185 277.438 162.461C277.083 162.737 276.906 163.122 276.906 163.617C276.906 164.034 277.099 164.383 277.484 164.664C277.87 164.94 278.505 165.211 279.391 165.477C280.276 165.737 280.987 166.036 281.523 166.375C282.06 166.708 282.453 167.094 282.703 167.531C282.953 167.964 283.078 168.471 283.078 169.055C283.078 170.003 282.714 170.758 281.984 171.32C281.26 171.878 280.276 172.156 279.031 172.156C278.208 172.156 277.451 172.005 276.758 171.703C276.07 171.396 275.534 170.974 275.148 170.438C274.768 169.901 274.578 169.276 274.578 168.562H276.555C276.555 169.208 276.768 169.708 277.195 170.062C277.622 170.417 278.234 170.594 279.031 170.594C279.719 170.594 280.234 170.456 280.578 170.18C280.927 169.898 281.102 169.529 281.102 169.07ZM287.008 161.492V163.547H288.5V164.953H287.008V169.672C287.008 169.995 287.07 170.229 287.195 170.375C287.326 170.516 287.555 170.586 287.883 170.586C288.102 170.586 288.323 170.56 288.547 170.508V171.977C288.115 172.096 287.698 172.156 287.297 172.156C285.839 172.156 285.109 171.352 285.109 169.742V164.953H283.719V163.547H285.109V161.492H287.008ZM295.008 172C294.924 171.839 294.852 171.576 294.789 171.211C294.185 171.841 293.445 172.156 292.57 172.156C291.721 172.156 291.029 171.914 290.492 171.43C289.956 170.945 289.688 170.346 289.688 169.633C289.688 168.732 290.021 168.042 290.688 167.562C291.359 167.078 292.318 166.836 293.562 166.836H294.727V166.281C294.727 165.844 294.604 165.495 294.359 165.234C294.115 164.969 293.742 164.836 293.242 164.836C292.81 164.836 292.456 164.945 292.18 165.164C291.904 165.378 291.766 165.651 291.766 165.984H289.867C289.867 165.521 290.021 165.089 290.328 164.688C290.635 164.281 291.052 163.964 291.578 163.734C292.109 163.505 292.701 163.391 293.352 163.391C294.341 163.391 295.13 163.641 295.719 164.141C296.307 164.635 296.609 165.333 296.625 166.234V170.047C296.625 170.807 296.732 171.414 296.945 171.867V172H295.008ZM292.922 170.633C293.297 170.633 293.648 170.542 293.977 170.359C294.31 170.177 294.56 169.932 294.727 169.625V168.031H293.703C293 168.031 292.471 168.154 292.117 168.398C291.763 168.643 291.586 168.99 291.586 169.438C291.586 169.802 291.706 170.094 291.945 170.312C292.19 170.526 292.516 170.633 292.922 170.633ZM300.375 163.547L300.43 164.523C301.055 163.768 301.875 163.391 302.891 163.391C304.651 163.391 305.547 164.398 305.578 166.414V172H303.68V166.523C303.68 165.987 303.562 165.591 303.328 165.336C303.099 165.076 302.721 164.945 302.195 164.945C301.43 164.945 300.859 165.292 300.484 165.984V172H298.586V163.547H300.375ZM307.164 167.711C307.164 166.409 307.466 165.365 308.07 164.578C308.674 163.786 309.484 163.391 310.5 163.391C311.396 163.391 312.12 163.703 312.672 164.328V160H314.57V172H312.852L312.758 171.125C312.19 171.812 311.432 172.156 310.484 172.156C309.495 172.156 308.693 171.758 308.078 170.961C307.469 170.164 307.164 169.081 307.164 167.711ZM309.062 167.875C309.062 168.734 309.227 169.406 309.555 169.891C309.888 170.37 310.359 170.609 310.969 170.609C311.745 170.609 312.312 170.263 312.672 169.57V165.961C312.323 165.284 311.76 164.945 310.984 164.945C310.37 164.945 309.896 165.19 309.562 165.68C309.229 166.164 309.062 166.896 309.062 167.875ZM321.602 172C321.518 171.839 321.445 171.576 321.383 171.211C320.779 171.841 320.039 172.156 319.164 172.156C318.315 172.156 317.622 171.914 317.086 171.43C316.549 170.945 316.281 170.346 316.281 169.633C316.281 168.732 316.615 168.042 317.281 167.562C317.953 167.078 318.911 166.836 320.156 166.836H321.32V166.281C321.32 165.844 321.198 165.495 320.953 165.234C320.708 164.969 320.336 164.836 319.836 164.836C319.404 164.836 319.049 164.945 318.773 165.164C318.497 165.378 318.359 165.651 318.359 165.984H316.461C316.461 165.521 316.615 165.089 316.922 164.688C317.229 164.281 317.646 163.964 318.172 163.734C318.703 163.505 319.294 163.391 319.945 163.391C320.935 163.391 321.724 163.641 322.312 164.141C322.901 164.635 323.203 165.333 323.219 166.234V170.047C323.219 170.807 323.326 171.414 323.539 171.867V172H321.602ZM319.516 170.633C319.891 170.633 320.242 170.542 320.57 170.359C320.904 170.177 321.154 169.932 321.32 169.625V168.031H320.297C319.594 168.031 319.065 168.154 318.711 168.398C318.357 168.643 318.18 168.99 318.18 169.438C318.18 169.802 318.299 170.094 318.539 170.312C318.784 170.526 319.109 170.633 319.516 170.633ZM329.633 165.281C329.383 165.24 329.125 165.219 328.859 165.219C327.99 165.219 327.404 165.552 327.102 166.219V172H325.203V163.547H327.016L327.062 164.492C327.521 163.758 328.156 163.391 328.969 163.391C329.24 163.391 329.464 163.427 329.641 163.5L329.633 165.281ZM330.32 167.711C330.32 166.409 330.622 165.365 331.227 164.578C331.831 163.786 332.641 163.391 333.656 163.391C334.552 163.391 335.276 163.703 335.828 164.328V160H337.727V172H336.008L335.914 171.125C335.346 171.812 334.589 172.156 333.641 172.156C332.651 172.156 331.849 171.758 331.234 170.961C330.625 170.164 330.32 169.081 330.32 167.711ZM332.219 167.875C332.219 168.734 332.383 169.406 332.711 169.891C333.044 170.37 333.516 170.609 334.125 170.609C334.901 170.609 335.469 170.263 335.828 169.57V165.961C335.479 165.284 334.917 164.945 334.141 164.945C333.526 164.945 333.052 165.19 332.719 165.68C332.385 166.164 332.219 166.896 332.219 167.875ZM350.43 167.18H345.852V172H343.875V160.625H351.102V162.219H345.852V165.602H350.43V167.18ZM354.508 172H352.609V163.547H354.508V172ZM352.492 161.352C352.492 161.06 352.583 160.818 352.766 160.625C352.953 160.432 353.219 160.336 353.562 160.336C353.906 160.336 354.172 160.432 354.359 160.625C354.547 160.818 354.641 161.06 354.641 161.352C354.641 161.638 354.547 161.878 354.359 162.07C354.172 162.258 353.906 162.352 353.562 162.352C353.219 162.352 352.953 162.258 352.766 162.07C352.583 161.878 352.492 161.638 352.492 161.352ZM360.305 172.156C359.102 172.156 358.125 171.779 357.375 171.023C356.63 170.263 356.258 169.253 356.258 167.992V167.758C356.258 166.914 356.419 166.161 356.742 165.5C357.07 164.833 357.529 164.315 358.117 163.945C358.706 163.576 359.362 163.391 360.086 163.391C361.237 163.391 362.125 163.758 362.75 164.492C363.38 165.227 363.695 166.266 363.695 167.609V168.375H358.172C358.229 169.073 358.461 169.625 358.867 170.031C359.279 170.438 359.794 170.641 360.414 170.641C361.284 170.641 361.992 170.289 362.539 169.586L363.562 170.562C363.224 171.068 362.771 171.461 362.203 171.742C361.641 172.018 361.008 172.156 360.305 172.156ZM360.078 164.914C359.557 164.914 359.135 165.096 358.812 165.461C358.495 165.826 358.292 166.333 358.203 166.984H361.82V166.844C361.779 166.208 361.609 165.729 361.312 165.406C361.016 165.078 360.604 164.914 360.078 164.914ZM367.195 172H365.297V160H367.195V172ZM368.914 167.711C368.914 166.409 369.216 165.365 369.82 164.578C370.424 163.786 371.234 163.391 372.25 163.391C373.146 163.391 373.87 163.703 374.422 164.328V160H376.32V172H374.602L374.508 171.125C373.94 171.812 373.182 172.156 372.234 172.156C371.245 172.156 370.443 171.758 369.828 170.961C369.219 170.164 368.914 169.081 368.914 167.711ZM370.812 167.875C370.812 168.734 370.977 169.406 371.305 169.891C371.638 170.37 372.109 170.609 372.719 170.609C373.495 170.609 374.062 170.263 374.422 169.57V165.961C374.073 165.284 373.51 164.945 372.734 164.945C372.12 164.945 371.646 165.19 371.312 165.68C370.979 166.164 370.812 166.896 370.812 167.875Z" fill="#3EAF7C"/>
<g filter="url(#filter8_d)">
<path d="M201.293 165.293C200.902 165.683 200.902 166.317 201.293 166.707L207.657 173.071C208.047 173.462 208.681 173.462 209.071 173.071C209.462 172.681 209.462 172.047 209.071 171.657L203.414 166L209.071 160.343C209.462 159.953 209.462 159.319 209.071 158.929C208.681 158.538 208.047 158.538 207.657 158.929L201.293 165.293ZM266 165L202 165L202 167L266 167L266 165Z" fill="#3EAF7C"/>
</g>
<g filter="url(#filter9_d)">
<path d="M36 142.5C35.1716 142.5 34.5 143.172 34.5 144V189C34.5 189.828 35.1716 190.5 36 190.5H194C194.828 190.5 195.5 189.828 195.5 189V164.602V144C195.5 143.172 194.828 142.5 194 142.5H36Z" stroke="#3EAF7C" stroke-width="3" stroke-linejoin="round"/>
</g>
<path d="M37.5234 262.352H33.1172L32.1953 265H30.1406L34.4375 253.625H36.2109L40.5156 265H38.4531L37.5234 262.352ZM33.6719 260.758H36.9688L35.3203 256.039L33.6719 260.758ZM43.8672 254.492V256.547H45.3594V257.953H43.8672V262.672C43.8672 262.995 43.9297 263.229 44.0547 263.375C44.1849 263.516 44.4141 263.586 44.7422 263.586C44.9609 263.586 45.1823 263.56 45.4062 263.508V264.977C44.974 265.096 44.5573 265.156 44.1562 265.156C42.6979 265.156 41.9688 264.352 41.9688 262.742V257.953H40.5781V256.547H41.9688V254.492H43.8672ZM49.1953 254.492V256.547H50.6875V257.953H49.1953V262.672C49.1953 262.995 49.2578 263.229 49.3828 263.375C49.513 263.516 49.7422 263.586 50.0703 263.586C50.2891 263.586 50.5104 263.56 50.7344 263.508V264.977C50.3021 265.096 49.8854 265.156 49.4844 265.156C48.026 265.156 47.2969 264.352 47.2969 262.742V257.953H45.9062V256.547H47.2969V254.492H49.1953ZM56.5703 258.281C56.3203 258.24 56.0625 258.219 55.7969 258.219C54.9271 258.219 54.3411 258.552 54.0391 259.219V265H52.1406V256.547H53.9531L54 257.492C54.4583 256.758 55.0938 256.391 55.9062 256.391C56.1771 256.391 56.401 256.427 56.5781 256.5L56.5703 258.281ZM59.7891 265H57.8906V256.547H59.7891V265ZM57.7734 254.352C57.7734 254.06 57.8646 253.818 58.0469 253.625C58.2344 253.432 58.5 253.336 58.8438 253.336C59.1875 253.336 59.4531 253.432 59.6406 253.625C59.8281 253.818 59.9219 254.06 59.9219 254.352C59.9219 254.638 59.8281 254.878 59.6406 255.07C59.4531 255.258 59.1875 255.352 58.8438 255.352C58.5 255.352 58.2344 255.258 58.0469 255.07C57.8646 254.878 57.7734 254.638 57.7734 254.352ZM69.2812 260.859C69.2812 262.172 68.987 263.216 68.3984 263.992C67.8151 264.768 67.0104 265.156 65.9844 265.156C64.9948 265.156 64.224 264.799 63.6719 264.086L63.5781 265H61.8594V253H63.7578V257.359C64.3047 256.714 65.0417 256.391 65.9688 256.391C67 256.391 67.8099 256.773 68.3984 257.539C68.987 258.305 69.2812 259.375 69.2812 260.75V260.859ZM67.3828 260.695C67.3828 259.779 67.2214 259.091 66.8984 258.633C66.5755 258.174 66.1068 257.945 65.4922 257.945C64.6693 257.945 64.0911 258.305 63.7578 259.023V262.508C64.0964 263.242 64.6797 263.609 65.5078 263.609C66.1016 263.609 66.5599 263.388 66.8828 262.945C67.2057 262.503 67.3724 261.833 67.3828 260.938V260.695ZM76 264.172C75.4427 264.828 74.651 265.156 73.625 265.156C72.7083 265.156 72.013 264.888 71.5391 264.352C71.0703 263.815 70.8359 263.039 70.8359 262.023V256.547H72.7344V262C72.7344 263.073 73.1797 263.609 74.0703 263.609C74.9922 263.609 75.6146 263.279 75.9375 262.617V256.547H77.8359V265H76.0469L76 264.172ZM82.1484 254.492V256.547H83.6406V257.953H82.1484V262.672C82.1484 262.995 82.2109 263.229 82.3359 263.375C82.4661 263.516 82.6953 263.586 83.0234 263.586C83.2422 263.586 83.4635 263.56 83.6875 263.508V264.977C83.2552 265.096 82.8385 265.156 82.4375 265.156C80.9792 265.156 80.25 264.352 80.25 262.742V257.953H78.8594V256.547H80.25V254.492H82.1484ZM88.8203 265.156C87.6172 265.156 86.6406 264.779 85.8906 264.023C85.1458 263.263 84.7734 262.253 84.7734 260.992V260.758C84.7734 259.914 84.9349 259.161 85.2578 258.5C85.5859 257.833 86.0443 257.315 86.6328 256.945C87.2214 256.576 87.8776 256.391 88.6016 256.391C89.7526 256.391 90.6406 256.758 91.2656 257.492C91.8958 258.227 92.2109 259.266 92.2109 260.609V261.375H86.6875C86.7448 262.073 86.9766 262.625 87.3828 263.031C87.7943 263.438 88.3099 263.641 88.9297 263.641C89.7995 263.641 90.5078 263.289 91.0547 262.586L92.0781 263.562C91.7396 264.068 91.2865 264.461 90.7188 264.742C90.1562 265.018 89.5234 265.156 88.8203 265.156ZM88.5938 257.914C88.0729 257.914 87.651 258.096 87.3281 258.461C87.0104 258.826 86.8073 259.333 86.7188 259.984H90.3359V259.844C90.2943 259.208 90.125 258.729 89.8281 258.406C89.5312 258.078 89.1198 257.914 88.5938 257.914Z" fill="#262330"/>
<g filter="url(#filter10_d)">
<path d="M61.7071 179.293C61.3166 178.902 60.6834 178.902 60.2929 179.293L53.9289 185.657C53.5384 186.047 53.5384 186.681 53.9289 187.071C54.3195 187.462 54.9526 187.462 55.3431 187.071L61 181.414L66.6569 187.071C67.0474 187.462 67.6805 187.462 68.0711 187.071C68.4616 186.681 68.4616 186.047 68.0711 185.657L61.7071 179.293ZM62 245L62 180L60 180L60 245L62 245Z" fill="#262330"/>
</g>
<g filter="url(#filter11_d)">
<rect x="43" y="152" width="37" height="25" stroke="#262330" stroke-width="3" stroke-linejoin="round"/>
</g>
<g filter="url(#filter12_d)">
<rect x="88" y="151" width="95" height="26" stroke="#AF3E9D" stroke-width="3" stroke-linejoin="round"/>
</g>
<g filter="url(#filter13_d)">
<path d="M136.707 179.293C136.317 178.902 135.683 178.902 135.293 179.293L128.929 185.657C128.538 186.047 128.538 186.681 128.929 187.071C129.319 187.462 129.953 187.462 130.343 187.071L136 181.414L141.657 187.071C142.047 187.462 142.681 187.462 143.071 187.071C143.462 186.681 143.462 186.047 143.071 185.657L136.707 179.293ZM137 245L137 180L135 180L135 245L137 245Z" fill="#AF3E9D"/>
</g>
<path d="M121.164 261.523L124.055 252.625H126.227L122.133 264H120.219L116.141 252.625H118.305L121.164 261.523ZM132.023 264C131.94 263.839 131.867 263.576 131.805 263.211C131.201 263.841 130.461 264.156 129.586 264.156C128.737 264.156 128.044 263.914 127.508 263.43C126.971 262.945 126.703 262.346 126.703 261.633C126.703 260.732 127.036 260.042 127.703 259.562C128.375 259.078 129.333 258.836 130.578 258.836H131.742V258.281C131.742 257.844 131.62 257.495 131.375 257.234C131.13 256.969 130.758 256.836 130.258 256.836C129.826 256.836 129.471 256.945 129.195 257.164C128.919 257.378 128.781 257.651 128.781 257.984H126.883C126.883 257.521 127.036 257.089 127.344 256.688C127.651 256.281 128.068 255.964 128.594 255.734C129.125 255.505 129.716 255.391 130.367 255.391C131.357 255.391 132.146 255.641 132.734 256.141C133.323 256.635 133.625 257.333 133.641 258.234V262.047C133.641 262.807 133.747 263.414 133.961 263.867V264H132.023ZM129.938 262.633C130.312 262.633 130.664 262.542 130.992 262.359C131.326 262.177 131.576 261.932 131.742 261.625V260.031H130.719C130.016 260.031 129.487 260.154 129.133 260.398C128.779 260.643 128.602 260.99 128.602 261.438C128.602 261.802 128.721 262.094 128.961 262.312C129.206 262.526 129.531 262.633 129.938 262.633ZM137.648 264H135.75V252H137.648V264ZM144.844 263.172C144.286 263.828 143.495 264.156 142.469 264.156C141.552 264.156 140.857 263.888 140.383 263.352C139.914 262.815 139.68 262.039 139.68 261.023V255.547H141.578V261C141.578 262.073 142.023 262.609 142.914 262.609C143.836 262.609 144.458 262.279 144.781 261.617V255.547H146.68V264H144.891L144.844 263.172ZM152.336 264.156C151.133 264.156 150.156 263.779 149.406 263.023C148.661 262.263 148.289 261.253 148.289 259.992V259.758C148.289 258.914 148.451 258.161 148.773 257.5C149.102 256.833 149.56 256.315 150.148 255.945C150.737 255.576 151.393 255.391 152.117 255.391C153.268 255.391 154.156 255.758 154.781 256.492C155.411 257.227 155.727 258.266 155.727 259.609V260.375H150.203C150.26 261.073 150.492 261.625 150.898 262.031C151.31 262.438 151.826 262.641 152.445 262.641C153.315 262.641 154.023 262.289 154.57 261.586L155.594 262.562C155.255 263.068 154.802 263.461 154.234 263.742C153.672 264.018 153.039 264.156 152.336 264.156ZM152.109 256.914C151.589 256.914 151.167 257.096 150.844 257.461C150.526 257.826 150.323 258.333 150.234 258.984H153.852V258.844C153.81 258.208 153.641 257.729 153.344 257.406C153.047 257.078 152.635 256.914 152.109 256.914Z" fill="#AF3E9D"/>
<defs>
<filter id="filter0_d" x="213.086" y="209.086" width="61.9757" height="61.9757" filterUnits="userSpaceOnUse" color-interpolation-filters="sRGB">
<feFlood flood-opacity="0" result="BackgroundImageFix"/>
<feColorMatrix in="SourceAlpha" type="matrix" values="0 0 0 0 0 0 0 0 0 0 0 0 0 0 0 0 0 0 127 0"/>
<feOffset dy="4"/>
<feGaussianBlur stdDeviation="2"/>
<feColorMatrix type="matrix" values="0 0 0 0 0 0 0 0 0 0 0 0 0 0 0 0 0 0 0.25 0"/>
<feBlend mode="normal" in2="BackgroundImageFix" result="effect1_dropShadow"/>
<feBlend mode="normal" in="SourceGraphic" in2="effect1_dropShadow" result="shape"/>
</filter>
<filter id="filter1_d" x="0.5" y="64.5" width="222" height="154" filterUnits="userSpaceOnUse" color-interpolation-filters="sRGB">
<feFlood flood-opacity="0" result="BackgroundImageFix"/>
<feColorMatrix in="SourceAlpha" type="matrix" values="0 0 0 0 0 0 0 0 0 0 0 0 0 0 0 0 0 0 127 0"/>
<feOffset dy="4"/>
<feGaussianBlur stdDeviation="2"/>
<feColorMatrix type="matrix" values="0 0 0 0 0 0 0 0 0 0 0 0 0 0 0 0 0 0 0.25 0"/>
<feBlend mode="normal" in2="BackgroundImageFix" result="effect1_dropShadow"/>
<feBlend mode="normal" in="SourceGraphic" in2="effect1_dropShadow" result="shape"/>
</filter>
<filter id="filter2_d" x="27.5" y="84.5" width="138" height="55" filterUnits="userSpaceOnUse" color-interpolation-filters="sRGB">
<feFlood flood-opacity="0" result="BackgroundImageFix"/>
<feColorMatrix in="SourceAlpha" type="matrix" values="0 0 0 0 0 0 0 0 0 0 0 0 0 0 0 0 0 0 127 0"/>
<feOffset dy="4"/>
<feGaussianBlur stdDeviation="2"/>
<feColorMatrix type="matrix" values="0 0 0 0 0 0 0 0 0 0 0 0 0 0 0 0 0 0 0.25 0"/>
<feBlend mode="normal" in2="BackgroundImageFix" result="effect1_dropShadow"/>
<feBlend mode="normal" in="SourceGraphic" in2="effect1_dropShadow" result="shape"/>
</filter>
<filter id="filter3_d" x="101.611" y="23.4777" width="22.9278" height="81.5423" filterUnits="userSpaceOnUse" color-interpolation-filters="sRGB">
<feFlood flood-opacity="0" result="BackgroundImageFix"/>
<feColorMatrix in="SourceAlpha" type="matrix" values="0 0 0 0 0 0 0 0 0 0 0 0 0 0 0 0 0 0 127 0"/>
<feOffset dy="4"/>
<feGaussianBlur stdDeviation="2"/>
<feColorMatrix type="matrix" values="0 0 0 0 0 0 0 0 0 0 0 0 0 0 0 0 0 0 0.25 0"/>
<feBlend mode="normal" in2="BackgroundImageFix" result="effect1_dropShadow"/>
<feBlend mode="normal" in="SourceGraphic" in2="effect1_dropShadow" result="shape"/>
</filter>
<filter id="filter4_d" x="44.6861" y="50.9775" width="22.853" height="54.0422" filterUnits="userSpaceOnUse" color-interpolation-filters="sRGB">
<feFlood flood-opacity="0" result="BackgroundImageFix"/>
<feColorMatrix in="SourceAlpha" type="matrix" values="0 0 0 0 0 0 0 0 0 0 0 0 0 0 0 0 0 0 127 0"/>
<feOffset dy="4"/>
<feGaussianBlur stdDeviation="2"/>
<feColorMatrix type="matrix" values="0 0 0 0 0 0 0 0 0 0 0 0 0 0 0 0 0 0 0.25 0"/>
<feBlend mode="normal" in2="BackgroundImageFix" result="effect1_dropShadow"/>
<feBlend mode="normal" in="SourceGraphic" in2="effect1_dropShadow" result="shape"/>
</filter>
<filter id="filter5_d" x="36.5" y="98.5" width="40" height="30" filterUnits="userSpaceOnUse" color-interpolation-filters="sRGB">
<feFlood flood-opacity="0" result="BackgroundImageFix"/>
<feColorMatrix in="SourceAlpha" type="matrix" values="0 0 0 0 0 0 0 0 0 0 0 0 0 0 0 0 0 0 127 0"/>
<feOffset dy="4"/>
<feGaussianBlur stdDeviation="2"/>
<feColorMatrix type="matrix" values="0 0 0 0 0 0 0 0 0 0 0 0 0 0 0 0 0 0 0.25 0"/>
<feBlend mode="normal" in2="BackgroundImageFix" result="effect1_dropShadow"/>
<feBlend mode="normal" in="SourceGraphic" in2="effect1_dropShadow" result="shape"/>
</filter>
<filter id="filter6_d" x="76.5" y="98.5" width="64" height="30" filterUnits="userSpaceOnUse" color-interpolation-filters="sRGB">
<feFlood flood-opacity="0" result="BackgroundImageFix"/>
<feColorMatrix in="SourceAlpha" type="matrix" values="0 0 0 0 0 0 0 0 0 0 0 0 0 0 0 0 0 0 127 0"/>
<feOffset dy="4"/>
<feGaussianBlur stdDeviation="2"/>
<feColorMatrix type="matrix" values="0 0 0 0 0 0 0 0 0 0 0 0 0 0 0 0 0 0 0.25 0"/>
<feBlend mode="normal" in2="BackgroundImageFix" result="effect1_dropShadow"/>
<feBlend mode="normal" in="SourceGraphic" in2="effect1_dropShadow" result="shape"/>
</filter>
<filter id="filter7_d" x="163" y="101.636" width="105" height="22.7279" filterUnits="userSpaceOnUse" color-interpolation-filters="sRGB">
<feFlood flood-opacity="0" result="BackgroundImageFix"/>
<feColorMatrix in="SourceAlpha" type="matrix" values="0 0 0 0 0 0 0 0 0 0 0 0 0 0 0 0 0 0 127 0"/>
<feOffset dy="4"/>
<feGaussianBlur stdDeviation="2"/>
<feColorMatrix type="matrix" values="0 0 0 0 0 0 0 0 0 0 0 0 0 0 0 0 0 0 0.25 0"/>
<feBlend mode="normal" in2="BackgroundImageFix" result="effect1_dropShadow"/>
<feBlend mode="normal" in="SourceGraphic" in2="effect1_dropShadow" result="shape"/>
</filter>
<filter id="filter8_d" x="197" y="158.636" width="73" height="22.7279" filterUnits="userSpaceOnUse" color-interpolation-filters="sRGB">
<feFlood flood-opacity="0" result="BackgroundImageFix"/>
<feColorMatrix in="SourceAlpha" type="matrix" values="0 0 0 0 0 0 0 0 0 0 0 0 0 0 0 0 0 0 127 0"/>
<feOffset dy="4"/>
<feGaussianBlur stdDeviation="2"/>
<feColorMatrix type="matrix" values="0 0 0 0 0 0 0 0 0 0 0 0 0 0 0 0 0 0 0.25 0"/>
<feBlend mode="normal" in2="BackgroundImageFix" result="effect1_dropShadow"/>
<feBlend mode="normal" in="SourceGraphic" in2="effect1_dropShadow" result="shape"/>
</filter>
<filter id="filter9_d" x="29" y="141" width="172" height="59" filterUnits="userSpaceOnUse" color-interpolation-filters="sRGB">
<feFlood flood-opacity="0" result="BackgroundImageFix"/>
<feColorMatrix in="SourceAlpha" type="matrix" values="0 0 0 0 0 0 0 0 0 0 0 0 0 0 0 0 0 0 127 0"/>
<feOffset dy="4"/>
<feGaussianBlur stdDeviation="2"/>
<feColorMatrix type="matrix" values="0 0 0 0 0 0 0 0 0 0 0 0 0 0 0 0 0 0 0.25 0"/>
<feBlend mode="normal" in2="BackgroundImageFix" result="effect1_dropShadow"/>
<feBlend mode="normal" in="SourceGraphic" in2="effect1_dropShadow" result="shape"/>
</filter>
<filter id="filter10_d" x="49.636" y="179" width="22.7279" height="74" filterUnits="userSpaceOnUse" color-interpolation-filters="sRGB">
<feFlood flood-opacity="0" result="BackgroundImageFix"/>
<feColorMatrix in="SourceAlpha" type="matrix" values="0 0 0 0 0 0 0 0 0 0 0 0 0 0 0 0 0 0 127 0"/>
<feOffset dy="4"/>
<feGaussianBlur stdDeviation="2"/>
<feColorMatrix type="matrix" values="0 0 0 0 0 0 0 0 0 0 0 0 0 0 0 0 0 0 0.25 0"/>
<feBlend mode="normal" in2="BackgroundImageFix" result="effect1_dropShadow"/>
<feBlend mode="normal" in="SourceGraphic" in2="effect1_dropShadow" result="shape"/>
</filter>
<filter id="filter11_d" x="37.5" y="150.5" width="48" height="36" filterUnits="userSpaceOnUse" color-interpolation-filters="sRGB">
<feFlood flood-opacity="0" result="BackgroundImageFix"/>
<feColorMatrix in="SourceAlpha" type="matrix" values="0 0 0 0 0 0 0 0 0 0 0 0 0 0 0 0 0 0 127 0"/>
<feOffset dy="4"/>
<feGaussianBlur stdDeviation="2"/>
<feColorMatrix type="matrix" values="0 0 0 0 0 0 0 0 0 0 0 0 0 0 0 0 0 0 0.25 0"/>
<feBlend mode="normal" in2="BackgroundImageFix" result="effect1_dropShadow"/>
<feBlend mode="normal" in="SourceGraphic" in2="effect1_dropShadow" result="shape"/>
</filter>
<filter id="filter12_d" x="82.5" y="149.5" width="106" height="37" filterUnits="userSpaceOnUse" color-interpolation-filters="sRGB">
<feFlood flood-opacity="0" result="BackgroundImageFix"/>
<feColorMatrix in="SourceAlpha" type="matrix" values="0 0 0 0 0 0 0 0 0 0 0 0 0 0 0 0 0 0 127 0"/>
<feOffset dy="4"/>
<feGaussianBlur stdDeviation="2"/>
<feColorMatrix type="matrix" values="0 0 0 0 0 0 0 0 0 0 0 0 0 0 0 0 0 0 0.25 0"/>
<feBlend mode="normal" in2="BackgroundImageFix" result="effect1_dropShadow"/>
<feBlend mode="normal" in="SourceGraphic" in2="effect1_dropShadow" result="shape"/>
</filter>
<filter id="filter13_d" x="124.636" y="179" width="22.7279" height="74" filterUnits="userSpaceOnUse" color-interpolation-filters="sRGB">
<feFlood flood-opacity="0" result="BackgroundImageFix"/>
<feColorMatrix in="SourceAlpha" type="matrix" values="0 0 0 0 0 0 0 0 0 0 0 0 0 0 0 0 0 0 127 0"/>
<feOffset dy="4"/>
<feGaussianBlur stdDeviation="2"/>
<feColorMatrix type="matrix" values="0 0 0 0 0 0 0 0 0 0 0 0 0 0 0 0 0 0 0.25 0"/>
<feBlend mode="normal" in2="BackgroundImageFix" result="effect1_dropShadow"/>
<feBlend mode="normal" in="SourceGraphic" in2="effect1_dropShadow" result="shape"/>
</filter>
</defs>
</svg>
